<?xml version="1.0" encoding="UTF-8"?>
<svg xmlns="http://www.w3.org/2000/svg" xmlns:xlink="http://www.w3.org/1999/xlink" version="1.1" viewBox="0 0 197.1 202.4">
  <defs>
    <style>
      .cls-1, .cls-2, .cls-3 {
        fill: none;
      }

      .cls-2 {
        stroke-miterlimit: 10;
        stroke-width: 1.1px;
      }

      .cls-2, .cls-3 {
        stroke: #fff;
      }

      .cls-2, .cls-3, .cls-4 {
        isolation: isolate;
        opacity: .1;
      }

      .cls-3 {
        stroke-miterlimit: 10;
        stroke-width: 1.1px;
      }

      .cls-5, .cls-6 {
        fill: #4773b7;
      }

      .cls-6 {
        font-family: Roboto-Regular, Roboto;
        font-size: 14px;
      }

      .cls-7, .cls-4 {
        fill: #fff;
      }

      .cls-8 {
        fill: #38b458;
      }

      .cls-8, .cls-9 {
        display: none;
      }

      .cls-10 {
        clip-path: url(#clippath);
      }
    </style>
    <clipPath id="clippath">
      <rect class="cls-1" x="-44.8" y="-42.9" width="281.5" height="294.3"></rect>
    </clipPath>
  </defs>
  <!-- Generator: Adobe Illustrator 28.6.0, SVG Export Plug-In . SVG Version: 1.2.0 Build 709)  -->
  <g>
    <g id="Layer_1">
      <g>
        <rect class="cls-8" x="-44.8" y="-42.9" width="282.7" height="294.3"></rect>
        <g class="cls-9">
          <g class="cls-10">
            <g>
              <path class="cls-4" d="M466.4-41.4c-9,0-16.4,7.3-16.4,16.4s7.3,16.4,16.4,16.4,16.4-7.3,16.4-16.4-7.4-16.4-16.4-16.4ZM466.4-12.9c-6.7,0-12.2-5.5-12.2-12.2s5.5-12.2,12.2-12.2,12.2,5.5,12.2,12.2-5.5,12.2-12.2,12.2Z"></path>
              <g>
                <path class="cls-4" d="M18.2,79.3c-17.1,0-31,19.4-31,43.3s2.6,20.3,7.4,28.1c-13.7,9-27.4,25-27.4,42.5,0,27.3,14.8,49.2,40,49.2s2.1-.9,2.1-2.1-.9-2.1-2.1-2.1c-22.9,0-35.8-20-35.8-45s13.7-32.1,27.2-40c.5-.3.9-.8,1-1.3,0-.6,0-1.2-.3-1.6-5.1-7.4-7.8-17.2-7.8-27.6,0-21.6,12-39.1,26.8-39.1s22.4,11.6,25.7,28.1c.2,1.1,1.3,1.9,2.5,1.6,1.1-.2,1.9-1.3,1.6-2.5-3.8-18.6-16.1-31.5-29.9-31.5Z"></path>
                <g>
                  <circle class="cls-2" cx="79" cy="-174.5" r="27.7"></circle>
                  <path class="cls-3" d="M79-204.2c-16.4,0-29.8,13.4-29.8,29.8s13.4,29.8,29.8,29.8,29.8-13.4,29.8-29.8c-.1-16.5-13.4-29.8-29.8-29.8ZM79-148.9c-14.1,0-25.6-11.5-25.6-25.6s11.5-25.6,25.6-25.6,25.6,11.5,25.6,25.6-11.5,25.6-25.6,25.6Z"></path>
                </g>
                <path class="cls-4" d="M592.4-273.2c-1,0-1.9.1-2.9.2-4.3-12.1-14.7-20-26.4-20s-16.2,4-21.6,11.1c-4.3-1.6-8.8-2.4-13.5-2.4-19,0-34.5,13.3-34.5,29.6s.6,6.3,1.7,9.3c.3.8,1.1,1.3,2,1.3h116.9c1,0,1.9-.8,2.1-1.8.2-1.2.2-2.3.2-3.3,0-13.2-10.8-24-24-24ZM612.2-248.3h-113.5c-.7-2.1-1-4.3-1-6.4,0-14,13.6-25.4,30.3-25.4s9.3.9,13.5,2.7c.9.4,2,.1,2.5-.7,4.6-6.8,11.6-10.7,19.1-10.7s19.7,7.5,23,18.8c.3,1,1.4,1.7,2.4,1.5,1.3-.3,2.6-.4,3.9-.4,10.9,0,19.8,8.9,19.8,19.8v.8Z"></path>
                <g>
                  <path class="cls-3" d="M302-162.7c-5.1-11-14.8-18.5-25.8-18.5s-18.2,5.6-23.6,14.3h-1.3c-17.7,0-32.1,14.5-32.1,32.3v.9h117.7c-2.6-16.3-17.2-28.8-34.9-29Z"></path>
                  <path class="cls-3" d="M303.4-164.7c-5.8-11.4-16.1-18.5-27.2-18.5s-18.6,5.2-24.7,14.3h-.2c-18.8,0-34.2,15.4-34.2,34.4v1c0,1.1,1,2,2.1,2h117.7c.6,0,1.2-.3,1.6-.7.4-.5.6-1.1.5-1.7-2.8-17.3-17.6-30.1-35.6-30.8ZM221.3-135.7c.6-16.1,13.8-29,30-29h1.2c.8.1,1.5-.3,1.9-1,5.3-8.5,13.3-13.4,21.8-13.4s19,6.6,23.9,17.3c.3.7,1.1,1.2,1.9,1.2,15.6.1,28.9,10.4,32.4,24.9h-113.1Z"></path>
                </g>
                <g>
                  <path class="cls-3" d="M1017.1,73.4c-5.1-11-14.8-18.5-25.8-18.5s-18.2,5.6-23.6,14.3h-1.3c-17.7,0-32.1,14.5-32.1,32.3v.9h117.7c-2.7-16.3-17.3-28.9-34.9-29Z"></path>
                  <path class="cls-3" d="M1018.4,71.3c-5.8-11.4-16.1-18.5-27.2-18.5s-18.6,5.2-24.7,14.3h-.2c-18.8,0-34.2,15.4-34.2,34.4v1c0,1.1,1,2,2.1,2h117.8c.6,0,1.2-.3,1.6-.7.4-.5.6-1.1.5-1.7-2.9-17.3-17.7-30.1-35.7-30.8ZM936.3,100.4c.6-16.1,13.8-29,30-29h1.2c.8,0,1.5-.3,1.9-1,5.3-8.5,13.3-13.4,21.8-13.4s19,6.6,23.9,17.3c.3.7,1.1,1.2,1.9,1.2,15.6,0,28.9,10.4,32.4,24.9h-113.1Z"></path>
                </g>
                <g>
                  <path class="cls-3" d="M128.1-98.9c-18.8,1.2-34.2,16.3-35.7,35.1-.7,8.5,1.5,16.5,5.6,23.2,7.1,11.6,10.7,25,10.7,38.5h43.8v-.8c0-13.5,4.1-26.6,11-38.2,3.4-5.7,5.4-12.4,5.4-19.6,0-21.9-18.5-39.6-40.8-38.2Z"></path>
                  <path class="cls-3" d="M158.2-90.1c-8.2-7.7-19-11.6-30.3-10.9-19.9,1.3-36.1,17.2-37.6,37-.7,8.7,1.3,17.1,5.9,24.5,6.8,11,10.4,24,10.4,37.4S107.5,0,108.7,0h43.8c1.2,0,2.1-.9,2.1-2.1v-.8c0-12.5,3.7-25.4,10.7-37.1,3.7-6.2,5.7-13.4,5.7-20.6,0-11.2-4.7-21.9-12.8-29.5ZM161.7-42.2c-7.2,12-11.1,25.1-11.3,38h-39.7c-.4-13.5-4.1-26.4-11-37.5-4.1-6.6-5.9-14.2-5.3-21.9,1.4-17.8,15.9-32.1,33.7-33.2,10.1-.6,19.8,2.8,27.1,9.7,7.4,6.9,11.4,16.3,11.4,26.4.2,6.6-1.6,13-4.9,18.5Z"></path>
                </g>
                <g>
                  <path class="cls-3" d="M66.9,15.3C42.2,3.3,44.5-11.5,44.5-11.5c0,0-15.4,29.5-8.5,49.2,5.6,15.8,25.9,26,39.6,22.5,5.3-1.4,9.1-6.1,9.5-11.5.6-9-1-25.1-18.2-33.4Z"></path>
                  <path class="cls-3" d="M67.8,13.4C45,2.3,46.5-10.7,46.6-11.2c.2-1-.4-2-1.4-2.3s-2,.1-2.5,1c-.7,1.3-15.8,30.6-8.7,50.9,4.9,13.9,21.2,24.6,35.6,24.6s4.4-.3,6.5-.8c6.1-1.6,10.6-7,11-13.4.7-9.4-.9-26.5-19.3-35.4ZM75.6,60.1h0ZM83,48.4c-.3,4.6-3.5,8.5-7.9,9.7-12.3,3.2-31.8-6-37.1-21.1-4.7-13.2,1.6-31.6,5.5-41.2,2,5.9,7.6,14.2,22.5,21.4,16.1,7.8,17.6,22.9,17,31.2Z"></path>
                </g>
                <g>
                  <path class="cls-3" d="M193.6,38.5c-17.3,1.9-33.6,9.3-33.6,35.1s4,12.7,10.2,15.1c10.4,4.1,27.2,6,40-15.6,14.6-24.6,8.3-48.4,8.3-48.4,0,0-5.5,11.7-24.9,13.8Z"></path>
                  <path class="cls-3" d="M218.7,22.6c-.9-.1-1.7.4-2.1,1.2,0,.1-5.2,10.7-23.3,12.6-23.9,2.6-35.5,14.7-35.5,37.2s4.5,14.3,11.5,17.1c3.6,1.4,8.2,2.7,13.4,2.7,9.3,0,20.2-4.1,29.1-19.2,14.9-25.1,8.8-49,8.5-50,0-.9-.7-1.5-1.6-1.6ZM208.4,72c-11.8,19.8-26.8,18.9-37.4,14.7-5.4-2.1-8.9-7.3-8.9-13.2,0-20.2,10.1-30.7,31.7-33,12.8-1.4,19.9-6.7,23.5-10.6,1,8,1.3,24.9-8.9,42.1Z"></path>
                </g>
                <g>
                  <path class="cls-3" d="M73.1,174.3c4.8-5.2,7.7-12.2,7.7-19.9,0-16.3-13.2-29.5-29.5-29.5s-29.5,13.2-29.5,29.5,2.9,14.6,7.7,19.9c-16.2,8-27.3,24.7-27.3,44.1s22,49.2,49.2,49.2,49.2-22,49.2-49.2c0-19.4-11.3-36.1-27.5-44.1Z"></path>
                  <path class="cls-3" d="M.1,218.4c0,28.3,23,51.2,51.2,51.2s51.2-23,51.2-51.2-10-35.6-26.2-44.7c4.2-5.5,6.6-12.3,6.6-19.2,0-17.4-14.2-31.6-31.6-31.6s-31.6,14.1-31.6,31.5,2.3,13.7,6.6,19.2M51.3,265.4c-25.9,0-47.1-21.1-47.1-47.1s10-34.2,26.2-42.2c.6-.3,1-.8,1.1-1.5.1-.6-.1-1.3-.5-1.8-4.6-5.1-7.2-11.6-7.2-18.5,0-15.1,12.3-27.4,27.4-27.4s27.4,12.3,27.4,27.4-2.6,13.4-7.2,18.5c-.4.5-.6,1.2-.5,1.8s.5,1.2,1.1,1.5c16.1,8,26.2,24.2,26.2,42.2.2,26-20.9,47.1-46.9,47.1Z"></path>
                </g>
                <g>
                  <rect class="cls-3" x="122.4" y="160.4" width="212.7" height="104.3"></rect>
                  <path class="cls-3" d="M335.1,158.3H122.4c-1.2,0-2.1.9-2.1,2.1v104.3c0,1.2.9,2.1,2.1,2.1h212.7c1.2,0,2.1-.9,2.1-2.1v-104.3c0-1.1-1-2.1-2.1-2.1ZM333,262.6H124.5v-100.1h208.5v100.1Z"></path>
                </g>
                <g>
                  <path class="cls-4" d="M79-231.5c-1.2,0-2.1.9-2.1,2.1v12.5c0,1.2.9,2.1,2.1,2.1s2.1-.9,2.1-2.1v-12.5c0-1.1-1-2.1-2.1-2.1Z"></path>
                  <path class="cls-4" d="M79-134.6c-1.2,0-2.1.9-2.1,2.1v12.5c0,1.2.9,2.1,2.1,2.1s2.1-.9,2.1-2.1v-12.5c0-1.1-1-2.1-2.1-2.1Z"></path>
                </g>
                <g>
                  <path class="cls-4" d="M36.7-176.8h-12.4c-1.2,0-2.1.9-2.1,2.1s.9,2.1,2.1,2.1h12.5c1.2,0,2.1-.9,2.1-2.1s-1-2.1-2.2-2.1Z"></path>
                  <path class="cls-4" d="M133.7-176.8h-12.5c-1.2,0-2.1.9-2.1,2.1s.9,2.1,2.1,2.1h12.5c1.2,0,2.1-.9,2.1-2.1s-1-2.1-2.1-2.1Z"></path>
                </g>
                <g>
                  <path class="cls-4" d="M116.2-214.8l-8.8,8.8c-.8.8-.8,2.1,0,3,.4.4.9.6,1.5.6s1.1-.2,1.5-.6l8.8-8.8c.8-.8.8-2.1,0-3-.9-.9-2.2-.9-3,0Z"></path>
                  <path class="cls-4" d="M47.6-146.3l-8.8,8.8c-.8.8-.8,2.1,0,3,.4.4.9.6,1.5.6s1.1-.2,1.5-.6l8.8-8.8c.8-.8.8-2.1,0-3s-2.2-.8-3,0Z"></path>
                </g>
                <g>
                  <path class="cls-4" d="M41.8-214.8c-.8-.8-2.1-.8-3,0-.8.8-.8,2.1,0,3l8.8,8.8c.4.4.9.6,1.5.6s1.1-.2,1.5-.6c.8-.8.8-2.1,0-3l-8.8-8.8Z"></path>
                  <path class="cls-4" d="M110.3-146.3c-.8-.8-2.1-.8-3,0-.8.8-.8,2.1,0,3l8.8,8.8c.4.4.9.6,1.5.6s1.1-.2,1.5-.6c.8-.8.8-2.1,0-3l-8.8-8.8Z"></path>
                </g>
                <path class="cls-4" d="M153.8-252.7c-7,0-12.7,5.7-12.7,12.7s5.7,12.7,12.7,12.7,12.7-5.7,12.7-12.7c.1-7-5.6-12.7-12.7-12.7ZM153.8-231.5c-4.7,0-8.5-3.8-8.5-8.5s3.8-8.5,8.5-8.5,8.5,3.8,8.5,8.5c0,4.7-3.8,8.5-8.5,8.5Z"></path>
                <path class="cls-4" d="M841.3-380.4c-1.2,0-2.1.9-2.1,2.1v12.2c0,1.2.9,2.1,2.1,2.1s2.1-.9,2.1-2.1v-12.2c0-1.2-1-2.1-2.1-2.1Z"></path>
                <path class="cls-4" d="M841.3-358.8c-1.2,0-2.1.9-2.1,2.1v12.2c0,1.2.9,2.1,2.1,2.1s2.1-.9,2.1-2.1v-12.2c0-1.1-1-2.1-2.1-2.1Z"></path>
                <path class="cls-4" d="M836.6-363.5h-12.2c-1.2,0-2.1.9-2.1,2.1s.9,2.1,2.1,2.1h12.2c1.2,0,2.1-.9,2.1-2.1,0-1.1-1-2.1-2.1-2.1Z"></path>
                <path class="cls-4" d="M858.2-363.5h-12.2c-1.2,0-2.1.9-2.1,2.1s.9,2.1,2.1,2.1h12.2c1.2,0,2.1-.9,2.1-2.1s-.9-2.1-2.1-2.1Z"></path>
                <path class="cls-4" d="M868.6,218.5c-1.2,0-2.1.9-2.1,2.1v12.2c0,1.2.9,2.1,2.1,2.1s2.1-.9,2.1-2.1v-12.2c0-1.2-.9-2.1-2.1-2.1Z"></path>
                <path class="cls-4" d="M868.6,240.1c-1.2,0-2.1.9-2.1,2.1v12.2c0,1.2.9,2.1,2.1,2.1s2.1-.9,2.1-2.1v-12.2c0-1.1-.9-2.1-2.1-2.1Z"></path>
                <path class="cls-4" d="M863.9,235.4h-12.2c-1.2,0-2.1.9-2.1,2.1s.9,2.1,2.1,2.1h12.2c1.2,0,2.1-.9,2.1-2.1s-.9-2.1-2.1-2.1Z"></path>
                <path class="cls-4" d="M885.5,235.4h-12.2c-1.2,0-2.1.9-2.1,2.1s.9,2.1,2.1,2.1h12.2c1.2,0,2.1-.9,2.1-2.1s-.9-2.1-2.1-2.1Z"></path>
                <path class="cls-4" d="M220.9,92.3c-1.2,0-2.1.9-2.1,2.1v12.2c0,1.2.9,2.1,2.1,2.1s2.1-.9,2.1-2.1v-12.2c0-1.1-.9-2.1-2.1-2.1Z"></path>
                <path class="cls-4" d="M220.9,114c-1.2,0-2.1.9-2.1,2.1v12.2c0,1.2.9,2.1,2.1,2.1s2.1-.9,2.1-2.1v-12.2c0-1.2-.9-2.1-2.1-2.1Z"></path>
                <path class="cls-4" d="M216.2,109.3h-12.2c-1.2,0-2.1.9-2.1,2.1s.9,2.1,2.1,2.1h12.2c1.2,0,2.1-.9,2.1-2.1s-.9-2.1-2.1-2.1Z"></path>
                <path class="cls-4" d="M237.8,109.3h-12.2c-1.2,0-2.1.9-2.1,2.1s.9,2.1,2.1,2.1h12.2c1.2,0,2.1-.9,2.1-2.1,0-1.2-.9-2.1-2.1-2.1Z"></path>
                <g>
                  <path class="cls-4" d="M720.3-383.7c-1.2,0-2.1.9-2.1,2.1v8.1c0,1.2.9,2.1,2.1,2.1s2.1-.9,2.1-2.1v-8.1c0-1.2-1-2.1-2.1-2.1Z"></path>
                  <path class="cls-4" d="M720.3-341.8c-1.2,0-2.1.9-2.1,2.1v8.1c0,1.2.9,2.1,2.1,2.1s2.1-.9,2.1-2.1v-8.1c0-1.2-1-2.1-2.1-2.1Z"></path>
                  <path class="cls-4" d="M703.4-358.7h-8.1c-1.2,0-2.1.9-2.1,2.1s.9,2.1,2.1,2.1h8.1c1.2,0,2.1-.9,2.1-2.1s-.9-2.1-2.1-2.1Z"></path>
                  <path class="cls-4" d="M745.3-358.7h-8.1c-1.2,0-2.1.9-2.1,2.1s.9,2.1,2.1,2.1h8.1c1.2,0,2.1-.9,2.1-2.1s-.9-2.1-2.1-2.1Z"></path>
                  <path class="cls-4" d="M736.5-375.8l-5.8,5.8c-.8.8-.8,2.1,0,3,.4.4.9.6,1.5.6s1.1-.2,1.5-.6l5.8-5.8c.8-.8.8-2.1,0-3-.9-.8-2.2-.8-3,0Z"></path>
                  <path class="cls-4" d="M706.9-346.1l-5.8,5.8c-.8.8-.8,2.1,0,3,.4.4.9.6,1.5.6s1.1-.2,1.5-.6l5.8-5.8c.8-.8.8-2.1,0-3-.9-.9-2.2-.9-3,0Z"></path>
                  <path class="cls-4" d="M704.1-375.8c-.8-.8-2.1-.8-3,0-.8.8-.8,2.1,0,3l5.8,5.8c.4.4.9.6,1.5.6s1.1-.2,1.5-.6c.8-.8.8-2.1,0-3l-5.8-5.8Z"></path>
                  <path class="cls-4" d="M733.7-346.1c-.8-.8-2.1-.8-3,0-.8.8-.8,2.1,0,3l5.8,5.8c.4.4.9.6,1.5.6s1.1-.2,1.5-.6c.8-.8.8-2.1,0-3l-5.8-5.8Z"></path>
                </g>
                <g>
                  <path class="cls-4" d="M869.3,288.5c-1.2,0-2.1.9-2.1,2.1v9.9c0,1.2.9,2.1,2.1,2.1s2.1-.9,2.1-2.1v-9.9c0-1.1-.9-2.1-2.1-2.1Z"></path>
                  <path class="cls-4" d="M869.3,339.5c-1.2,0-2.1.9-2.1,2.1v9.9c0,1.2.9,2.1,2.1,2.1s2.1-.9,2.1-2.1v-9.9c0-1.2-.9-2.1-2.1-2.1Z"></path>
                  <path class="cls-4" d="M848.8,319h-9.9c-1.2,0-2.1.9-2.1,2.1s.9,2.1,2.1,2.1h9.9c1.2,0,2.1-.9,2.1-2.1s-1-2.1-2.1-2.1Z"></path>
                  <path class="cls-4" d="M899.7,319h-9.9c-1.2,0-2.1.9-2.1,2.1s.9,2.1,2.1,2.1h9.9c1.2,0,2.1-.9,2.1-2.1s-.9-2.1-2.1-2.1Z"></path>
                  <path class="cls-4" d="M889.3,298l-7,7c-.8.8-.8,2.1,0,3,.4.4.9.6,1.5.6s1.1-.2,1.5-.6l7-7c.8-.8.8-2.1,0-3-.8-.8-2.1-.8-3,0Z"></path>
                  <path class="cls-4" d="M853.3,334.1l-7,7c-.8.8-.8,2.1,0,3,.4.4.9.6,1.5.6s1.1-.2,1.5-.6l7-7c.8-.8.8-2.1,0-3-.9-.8-2.2-.8-3,0Z"></path>
                  <path class="cls-4" d="M849.3,298c-.8-.8-2.1-.8-3,0-.8.8-.8,2.1,0,3l7,7c.4.4.9.6,1.5.6s1.1-.2,1.5-.6c.8-.8.8-2.1,0-3l-7-7Z"></path>
                  <path class="cls-4" d="M885.3,334.1c-.8-.8-2.1-.8-3,0-.8.8-.8,2.1,0,3l7,7c.4.4.9.6,1.5.6s1.1-.2,1.5-.6c.8-.8.8-2.1,0-3l-7-7Z"></path>
                </g>
                <g>
                  <path class="cls-4" d="M380.2-227.8c-1.2,0-2.1.9-2.1,2.1v8.1c0,1.2.9,2.1,2.1,2.1s2.1-.9,2.1-2.1v-8.1c0-1.1-.9-2.1-2.1-2.1Z"></path>
                  <path class="cls-4" d="M380.2-185.9c-1.2,0-2.1.9-2.1,2.1v8.1c0,1.2.9,2.1,2.1,2.1s2.1-.9,2.1-2.1v-8.1c0-1.1-.9-2.1-2.1-2.1Z"></path>
                  <path class="cls-4" d="M363.3-202.7h-8.1c-1.2,0-2.1.9-2.1,2.1s.9,2.1,2.1,2.1h8.1c1.2,0,2.1-.9,2.1-2.1s-.9-2.1-2.1-2.1Z"></path>
                  <path class="cls-4" d="M405.2-202.7h-8.1c-1.2,0-2.1.9-2.1,2.1s.9,2.1,2.1,2.1h8.1c1.2,0,2.1-.9,2.1-2.1s-.9-2.1-2.1-2.1Z"></path>
                  <path class="cls-4" d="M396.4-219.8l-5.8,5.8c-.8.8-.8,2.1,0,3,.4.4.9.6,1.5.6s1.1-.2,1.5-.6l5.8-5.8c.8-.8.8-2.1,0-3-.8-.8-2.2-.8-3,0Z"></path>
                  <path class="cls-4" d="M366.8-190.2l-5.8,5.8c-.8.8-.8,2.1,0,3,.4.4.9.6,1.5.6s1.1-.2,1.5-.6l5.8-5.8c.8-.8.8-2.1,0-3-.9-.8-2.2-.8-3,0Z"></path>
                  <path class="cls-4" d="M364-219.8c-.8-.8-2.1-.8-3,0-.8.8-.8,2.1,0,3l5.8,5.8c.4.4.9.6,1.5.6s1.1-.2,1.5-.6c.8-.8.8-2.1,0-3l-5.8-5.8Z"></path>
                  <path class="cls-4" d="M393.6-190.2c-.8-.8-2.1-.8-3,0s-.8,2.1,0,3l5.8,5.8c.4.4.9.6,1.5.6s1.1-.2,1.5-.6c.8-.8.8-2.1,0-3l-5.8-5.8Z"></path>
                </g>
                <path class="cls-4" d="M863.1-337.7c-4.6,0-8.3,3.7-8.3,8.3s3.7,8.3,8.3,8.3,8.3-3.7,8.3-8.3-3.7-8.3-8.3-8.3ZM863.1-325.4c-2.3,0-4.1-1.8-4.1-4.1s1.8-4.1,4.1-4.1,4.1,1.8,4.1,4.1c0,2.3-1.8,4.1-4.1,4.1Z"></path>
                <path class="cls-4" d="M830.8-303.9c-7.8,0-14.1,6.3-14.1,14.1s6.3,14.1,14.1,14.1,14.1-6.3,14.1-14.1c0-7.8-6.4-14.1-14.1-14.1ZM830.8-279.9c-5.5,0-9.9-4.4-9.9-9.9s4.4-9.9,9.9-9.9,9.9,4.4,9.9,9.9-4.5,9.9-9.9,9.9Z"></path>
                <path class="cls-4" d="M949-114.7l29-31.8h50.7v-4.2h-51.7c-.6,0-1.2.2-1.5.7l-32.8,36c-.6.6-.7,1.5-.4,2.3s1.1,1.2,1.9,1.2h84.4v-4.2h-79.6Z"></path>
                <path class="cls-4" d="M944.3-114.7c-1.2,0-2.1.9-2.1,2.1V-44.5c0,1.2.9,2.1,2.1,2.1s2.1-.9,2.1-2.1v-66h82.3v-4.2h-84.4Z"></path>
                <path class="cls-4" d="M997.1-243.4c0,6.4,1.6,12.7,4.6,18.3-17.4,11.9-27.7,31.4-27.7,52.5s1.7,16.9,5,24.8c.3.8,1.1,1.3,1.9,1.3s.5-.1.8-.2c1.1-.5,1.6-1.7,1.1-2.7-3.1-7.4-4.7-15.2-4.7-23.2,0-20.4,10.3-39.1,27.4-50.1,1-.6,1.3-1.9.7-2.9-3.3-5.4-5-11.6-5-17.9,0-16.6,11.6-30.4,27.4-33.7v-4.3c-18.1,3.4-31.5,19.2-31.5,38.1Z"></path>
                <path class="cls-4" d="M982.4-181c1.4-3.4,2.2-6.9,2.2-10.5,0-16-14.2-29.1-31.6-29.1s-31.6,13.1-31.6,29.1.7,7.2,2.2,10.5c-15.4,9.5-24.6,25.3-24.6,42.8,0,25,18.9,46.2,45,50.3h.3c.5,0,1-.2,1.4-.5.5-.4.7-1,.7-1.6v-21.8l31.6-34.7h25.7c.6,0,1.2-.3,1.6-.8.4-.5.5-1.2.4-1.8-3-13-11.4-24.6-23.3-31.9ZM977.1-150.7c-.6,0-1.2.2-1.5.7l-32.8,36c-.4.4-.5.9-.5,1.4v20.1c-22.8-4.7-39.1-23.6-39.1-45.7s9-31.5,24.1-40.1c1-.6,1.3-1.8.8-2.8-1.7-3.3-2.6-6.8-2.6-10.4,0-13.7,12.3-24.9,27.4-24.9s27.4,11.2,27.4,24.9-.9,7.1-2.5,10.4c-.5,1,0,2.2.8,2.8,10.9,6.2,18.9,16.2,22.3,27.6h-23.8Z"></path>
                <path class="cls-4" d="M993.7-93.4h-31.6c-1.2,0-2.1.9-2.1,2.1v22.8c0,1.2.9,2.1,2.1,2.1h31.6c1.2,0,2.1-.9,2.1-2.1v-22.8c0-1.2-.9-2.1-2.1-2.1ZM991.6-70.6h-27.4v-18.7h27.4v18.7Z"></path>
                <path class="cls-4" d="M944.3-150.7c-1.2,0-2.1.9-2.1,2.1v36c0,1.2.9,2.1,2.1,2.1s2.1-.9,2.1-2.1v-36c0-1.1-.9-2.1-2.1-2.1Z"></path>
                <path class="cls-4" d="M452-252.4c-8,0-14.4,6.5-14.4,14.4s6.5,14.4,14.4,14.4,14.4-6.5,14.4-14.4-6.5-14.4-14.4-14.4ZM452-227.8c-5.7,0-10.3-4.6-10.3-10.3s4.6-10.3,10.3-10.3,10.3,4.6,10.3,10.3-4.7,10.3-10.3,10.3Z"></path>
                <path class="cls-4" d="M191.5-123.9c-8,0-14.6,6.5-14.6,14.6s6.5,14.6,14.6,14.6,14.6-6.5,14.6-14.6-6.6-14.6-14.6-14.6ZM191.5-99c-5.7,0-10.4-4.7-10.4-10.4s4.7-10.4,10.4-10.4,10.4,4.7,10.4,10.4-4.7,10.4-10.4,10.4Z"></path>
                <path class="cls-4" d="M26.7-61.6c-5.3,0-9.6,4.3-9.6,9.6s4.3,9.6,9.6,9.6,9.6-4.3,9.6-9.6c0-5.3-4.3-9.6-9.6-9.6ZM26.7-46.5c-3,0-5.4-2.4-5.4-5.4s2.4-5.4,5.4-5.4,5.4,2.4,5.4,5.4-2.4,5.4-5.4,5.4Z"></path>
                <path class="cls-4" d="M5.3-22.8c-8.8,0-15.9,7.2-15.9,15.9S-3.4,9,5.3,9,21.2,1.8,21.2-6.9s-7.1-15.9-15.9-15.9ZM5.3,4.9C-1.2,4.9-6.5-.4-6.5-6.9S-1.2-18.7,5.3-18.7s11.8,5.3,11.8,11.8c-.1,6.5-5.3,11.8-11.8,11.8Z"></path>
                <path class="cls-4" d="M159,6.5h-56.9c-1.2,0-2.1.9-2.1,2.1s.9,2.1,2.1,2.1h56.9c1.2,0,2.1-.9,2.1-2.1s-.9-2.1-2.1-2.1Z"></path>
                <path class="cls-4" d="M159,17.7h-56.9c-1.2,0-2.1.9-2.1,2.1s.9,2.1,2.1,2.1h56.9c1.2,0,2.1-.9,2.1-2.1s-.9-2.1-2.1-2.1Z"></path>
                <path class="cls-4" d="M141,17.7c-1.2,0-2.1.9-2.1,2.1v11.6c0,4.6-3.7,8.3-8.3,8.3s-8.3-3.7-8.3-8.3v-11.6c0-1.2-.9-2.1-2.1-2.1s-2.1.9-2.1,2.1v11.6c0,6.9,5.6,12.5,12.5,12.5s12.5-5.6,12.5-12.5v-11.6c0-1.2-1-2.1-2.1-2.1Z"></path>
                <path class="cls-4" d="M130.6,39.7c-1.2,0-2.1.9-2.1,2.1v103.9c0,1.2.9,2.1,2.1,2.1s2.1-.9,2.1-2.1V41.8c0-1.2-1-2.1-2.1-2.1Z"></path>
                <path class="cls-4" d="M162.8,80.9c-35.2,3-34.3,31.1-34.3,31.4.1,1.1,1,2,2.1,2h.1c1.2,0,2-1,2-2.2s-.6-24.4,30.5-27c1.2,0,2-1.1,1.9-2.3s-1.2-2-2.3-1.9Z"></path>
                <path class="cls-4" d="M123.3,58.9c-.3-.2-8.1-3.8-16.8-1.1-11.4,3.4-19.9-.3-22.6-3.4-.8-.9-2.1-1-3-.2s-1,2.1-.2,3c2.6,3,8.6,6.2,16.9,6.2s6.5-.5,10.2-1.6c7.2-2.1,13.8.9,13.8.9,1,.5,2.3,0,2.8-1,.4-1-.1-2.3-1.1-2.8Z"></path>
                <path class="cls-4" d="M122.4,64.4c-1.2,0-2.1.9-2.1,2.1v93.9c0,1.2.9,2.1,2.1,2.1s2.1-.9,2.1-2.1v-93.9c0-1.2-.9-2.1-2.1-2.1Z"></path>
                <path class="cls-4" d="M458.8,324H10.3c-1.2,0-2.1.9-2.1,2.1s.9,2.1,2.1,2.1h448.5c1.2,0,2.1-.9,2.1-2.1s-1-2.1-2.1-2.1Z"></path>
                <path class="cls-4" d="M359.5,91.6h-45.7c-1.2,0-2.1.9-2.1,2.1v35.3c0,1.2.9,2.1,2.1,2.1h45.7c1.2,0,2.1-.9,2.1-2.1v-35.3c0-1.2-.9-2.1-2.1-2.1ZM357.4,126.9h-41.5v-31.1h41.5v31.1Z"></path>
                <path class="cls-4" d="M439.4,92.4h-45.7c-1.2,0-2.1.9-2.1,2.1v35.3c0,1.2.9,2.1,2.1,2.1h45.7c1.2,0,2.1-.9,2.1-2.1v-35.3c0-1.1-1-2.1-2.1-2.1ZM437.3,127.8h-41.5v-31.2h41.5v31.2Z"></path>
                <path class="cls-4" d="M439.4,168.6h-45.7c-1.2,0-2.1.9-2.1,2.1v35.3c0,1.2.9,2.1,2.1,2.1h45.7c1.2,0,2.1-.9,2.1-2.1v-35.3c0-1.2-1-2.1-2.1-2.1ZM437.3,203.9h-41.5v-31.1h41.5v31.1Z"></path>
                <path class="cls-4" d="M375.8-.5c-.7-.5-1.7-.5-2.4,0l-117.4,81.7c-.9.7-1.2,2-.5,2.9.7,1,2,1.2,2.9.5L374.6,3.7l116.3,80.9c.4.3.8.4,1.2.4.7,0,1.3-.3,1.7-.9.7-.9.4-2.3-.5-2.9L375.8-.5Z"></path>
                <path class="cls-4" d="M432.8-126.5c-13-9.8-26.6-12.4-36.5-14.2-6.1-1.1-10.9-2-13.2-4.1-.7-.6-1.6-.7-2.4-.3s-1.2,1.3-1.1,2.1c0,.1.8,5.5,0,11.2-.1.8-.4,2.2-.9,3.9-2.2,9.2-6.8,28.4,1,45,9.6,20.3,32.4,23.6,41.7,24h.1c1.1,0,2-.9,2.1-2,.1-1.2-.8-2.1-2-2.2-8.6-.4-29.5-3.4-38.1-21.6-7.2-15.3-2.8-33.5-.7-42.3.5-1.9.8-3.3.9-4.3.4-3,.4-6,.3-8.2,3,1.2,6.9,2,11.4,2.8,10,1.9,22.6,4.2,34.8,13.5,19.4,14.7,12.2,49,12.1,49.3-.2,1.1.5,2.2,1.6,2.5,1.1.2,2.2-.5,2.5-1.6.4-1.4,8-37.2-13.6-53.5Z"></path>
                <path class="cls-4" d="M407.2-122.7c.4-1.1-.2-2.3-1.3-2.7-1.1-.4-2.3.2-2.7,1.3-.3.8-6.6,19.6,22.1,49.9.4.4,1,.7,1.5.7s1-.2,1.4-.6c.8-.8.9-2.1.1-3-26.5-28.2-21.2-45.4-21.1-45.6Z"></path>
                <path class="cls-4" d="M490.5-195.1c-.5-.8-1.4-1.2-2.2-1-.9.2-1.5.9-1.6,1.8-.7,6.4-9.9,13.3-19.6,20.7-4,3-8.2,6.2-12.2,9.6-14.8,12.6-11.2,35.8-11,36.8.2,1.1,1.3,1.9,2.4,1.7,1.1-.2,1.9-1.3,1.7-2.4,0-.2-3.4-21.8,9.6-32.9,3.9-3.3,8-6.4,12-9.4,8.7-6.6,16.4-12.4,19.7-18.7,5.3,9.5,18,33.9,19.1,51.8,1.4,23.3-6.2,31.5-12.4,38.1-.7.8-1.5,1.6-2.1,2.4-.8.9-.7,2.2.2,3,.4.3.9.5,1.4.5s1.2-.2,1.6-.7c.6-.7,1.3-1.5,2.1-2.3,6.3-6.8,14.9-16.2,13.5-41.2-1.6-23.7-21.3-56.4-22.2-57.8Z"></path>
                <path class="cls-4" d="M476.7-165.2c-1.2,0-2.1,1-2,2.1,0,.3.6,31.5-9.8,56.4-.4,1.1.1,2.3,1.1,2.7.3,0,.5.2.8.2.8,0,1.6-.5,1.9-1.3,10.7-25.7,10.1-56.8,10.1-58.1,0-1.1-.9-2-2.1-2Z"></path>
                <path class="cls-4" d="M605.8-175.9c-.8-5.4-1.8-15.9-1.8-16,0-.9-.7-1.6-1.6-1.8-.9-.2-1.8.2-2.3.9-10.8,17-22.6,18.9-42.3,22.2l-2.5.4c-9.3,1.6-16.7,6.1-21.8,13.4-12.5,17.8-7.6,45.9-7.4,47.1.2,1,1.1,1.7,2.1,1.7h.4c1.1-.2,1.9-1.3,1.7-2.4,0-.3-4.8-27.6,6.7-44,4.5-6.3,10.9-10.3,19.1-11.6l2.5-.4c18.2-3,30.8-5.1,41.8-19.4.4,3.4.9,7.7,1.3,10.6.2,1.5.4,3,.6,4.4,3.4,23.2,5.7,38.5-28.9,58.6-1,.6-1.3,1.9-.8,2.9.6,1,1.9,1.3,2.9.8,37.1-21.6,34.5-38.9,31-62.8-.3-1.7-.5-3.1-.7-4.6Z"></path>
                <path class="cls-4" d="M587.4-166.3c-1-.6-2.3-.2-2.9.8-14.4,25.5-36.9,40.2-37.2,40.3-1,.6-1.3,1.9-.6,2.9.4.6,1.1,1,1.8,1s.8,0,1.1-.3c1-.6,23.6-15.3,38.5-41.8.7-1.1.3-2.4-.7-2.9Z"></path>
                <path class="cls-4" d="M454.9-187l-8.4,5.5c-21.7,14.3-21.7,31-21.7,31.7,0,1.1,1,2.1,2.1,2.1h0c1.2,0,2.1-1,2.1-2.1s0-15.1,19.8-28.2l8.4-5.5c1-.6,1.2-1.9.6-2.9-.6-1-1.9-1.2-2.9-.6Z"></path>
                <path class="cls-4" d="M579.9-220.4h-87.9c-1.2,0-2.1.9-2.1,2.1s.9,2.1,2.1,2.1h87.9c1.2,0,2.1-.9,2.1-2.1s-.9-2.1-2.1-2.1Z"></path>
                <path class="cls-4" d="M651.7-343.2c-.8-.8-2.2-.8-3,0l-26.7,27.5c-.8.8-.8,2.2,0,3,.4.4.9.6,1.5.6s1.1-.2,1.5-.6l25.2-26,25.2,26c.8.8,2.1.9,3,0,.8-.8.9-2.1,0-3l-26.7-27.5Z"></path>
                <path class="cls-4" d="M468.2,64.4h-187.2c-1.2,0-2.1.9-2.1,2.1v54.7c0,1.2.9,2.1,2.1,2.1s2.1-.9,2.1-2.1v-52.6h183.1v174.2h-95.3c-1.2,0-2.1.9-2.1,2.1s.9,2.1,2.1,2.1h97.4c1.2,0,2.1-.9,2.1-2.1V66.5c-.1-1.2-1-2.1-2.2-2.1Z"></path>
                <path class="cls-4" d="M486.8,242.8h-18.5c-1.2,0-2.1.9-2.1,2.1s.9,2.1,2.1,2.1h18.5c1.2,0,2.1-.9,2.1-2.1s-.9-2.1-2.1-2.1Z"></path>
                <path class="cls-4" d="M486.8,262.6h-116.7c-1.2,0-2.1.9-2.1,2.1s.9,2.1,2.1,2.1h116.7c1.2,0,2.1-.9,2.1-2.1s-.9-2.1-2.1-2.1Z"></path>
                <path class="cls-4" d="M162.1,158.9c-1.2,0-2.1.9-2.1,2.1v103.7c0,1.2.9,2.1,2.1,2.1s2.1-.9,2.1-2.1v-103.7c0-1.2-.9-2.1-2.1-2.1Z"></path>
                <path class="cls-4" d="M228.9,158.9c-1.2,0-2.1.9-2.1,2.1v103.7c0,1.2.9,2.1,2.1,2.1s2.1-.9,2.1-2.1v-103.7c0-1.2-.9-2.1-2.1-2.1Z"></path>
                <path class="cls-4" d="M295.7,158.9c-1.2,0-2.1.9-2.1,2.1v103.7c0,1.2.9,2.1,2.1,2.1s2.1-.9,2.1-2.1v-103.7c0-1.2-.9-2.1-2.1-2.1Z"></path>
                <path class="cls-4" d="M334.1,210.5H122.4c-1.2,0-2.1.9-2.1,2.1s.9,2.1,2.1,2.1h211.7c1.2,0,2.1-.9,2.1-2.1s-.9-2.1-2.1-2.1Z"></path>
                <path class="cls-4" d="M292.6,146.8h-138.1c-1.2,0-2.1.9-2.1,2.1s.9,2.1,2.1,2.1h138.1c1.2,0,2.1-.9,2.1-2.1s-.9-2.1-2.1-2.1Z"></path>
                <path class="cls-4" d="M371.4,23l-46.9,33.3c-.9.7-1.2,2-.5,2.9.4.6,1.1.9,1.7.9s.8,0,1.2-.4l46.9-33.3c.9-.7,1.2-2,.5-2.9-.7-1-2-1.2-2.9-.5Z"></path>
                <path class="cls-4" d="M386.5,35.4l-18.9,14.2c-.9.7-1.1,2-.4,2.9.4.5,1,.8,1.7.8s.9,0,1.3-.4l18.9-14.2c.9-.7,1.1-2,.4-2.9-.7-.9-2-1.1-3-.4Z"></path>
                <path class="cls-4" d="M402.5,47.5l-8,5.4c-1,.6-1.2,1.9-.6,2.9.4.6,1.1.9,1.7.9s.8,0,1.2-.4l8-5.4c1-.6,1.2-1.9.6-2.9-.6-.9-1.9-1.2-2.9-.5Z"></path>
                <path class="cls-4" d="M580.6,101.4c-7,0-13.8,3.1-18.9,8.5-5.1-5.5-11.8-8.5-18.9-8.5-15.1,0-27.4,13.8-27.4,30.8s12.3,30.8,27.4,30.8,13.8-3.1,18.9-8.5c5.1,5.5,11.8,8.5,18.9,8.5,15.1,0,27.4-13.8,27.4-30.8s-12.3-30.8-27.4-30.8ZM580.6,158.9c-6.5,0-12.8-3.2-17.2-8.9-.4-.5-1-.8-1.6-.8s-1.3.3-1.6.8c-4.4,5.6-10.7,8.9-17.2,8.9-12.8,0-23.2-11.9-23.2-26.6s10.4-26.6,23.2-26.6,12.8,3.2,17.2,8.9c.8,1,2.5,1,3.3,0,4.4-5.6,10.7-8.9,17.2-8.9,12.8,0,23.2,11.9,23.2,26.6s-10.5,26.6-23.3,26.6Z"></path>
                <path class="cls-4" d="M448.7,92.4c-1.2,0-2.1.9-2.1,2.1v35.3c0,1.2.9,2.1,2.1,2.1s2.1-.9,2.1-2.1v-35.3c0-1.1-.9-2.1-2.1-2.1Z"></path>
                <path class="cls-4" d="M529,173.1c-34.1-15.2-24-55.1-23.6-56.7.3-1.1-.4-2.3-1.5-2.6-1.1-.3-2.3.4-2.6,1.5-.1.4-11.4,45,25.9,61.6.3.1.6.2.9.2.8,0,1.6-.5,1.9-1.2.5-1.1,0-2.3-1-2.8Z"></path>
                <path class="cls-4" d="M596.6,177.5c-6.8,0-12.4,5.5-12.4,12.4s5.5,12.4,12.4,12.4,12.4-5.5,12.4-12.4-5.5-12.4-12.4-12.4ZM596.6,198c-4.5,0-8.2-3.7-8.2-8.2s3.7-8.2,8.2-8.2,8.2,3.7,8.2,8.2-3.6,8.2-8.2,8.2Z"></path>
                <path class="cls-4" d="M538.7,60.8c-1.1-.3-2.3.3-2.6,1.4-.3,1.1.3,2.3,1.4,2.6,30.7,9,22.5,46.3,22.1,47.9-.3,1.1.4,2.2,1.6,2.5.2,0,.3,0,.5,0,1,0,1.8-.7,2-1.6.2-.5,9.5-42.8-25-52.9Z"></path>
                <path class="cls-4" d="M598.9,42.5c-.6-.4-1.4-.5-2.1-.2-7.7,3.6-11.2,3.2-15.8,2.6-4-.5-8.6-1.1-16.5,1.1-17.4,5-18.8,20.9-18.8,21,0,1.2.8,2.2,1.9,2.3,1.2,0,2.2-.8,2.3-1.9,0,0,1.2-13.2,15.8-17.3,7-2,11-1.5,14.8-1,4.1.5,8,1,14.6-1.5-1,5.8-3.6,17.1-9.9,21.4-11.2,7.7-18.8,7.6-28.2,4.8-1.1-.3-2.3.3-2.6,1.4s.3,2.3,1.4,2.6c3.9,1.2,7.7,1.9,11.5,1.9,6.2,0,12.5-2,20.3-7.3,10.2-7,12.1-27.2,12.2-28,0-.8-.3-1.5-.9-1.9Z"></path>
                <path class="cls-4" d="M460.5,29.3c-.9-.7-2.2-.5-2.9.5-.7.9-.5,2.2.5,2.9l36.9,27c.4.3.8.4,1.2.4.6,0,1.3-.3,1.7-.9.7-.9.5-2.2-.5-2.9l-36.9-27Z"></path>
                <path class="cls-4" d="M882.9-6.5c-.4,1.1.2,2.3,1.3,2.6.2,0,.4,0,.7,0,.9,0,1.7-.6,2-1.4.2-.5,16.8-46.4,141.9-41.3v-4.2c-128.1-5.2-145.2,42.2-145.9,44.2Z"></path>
                <path class="cls-4" d="M919-76c-29.2-12.2-29.6-35.6-29.6-36.6h0c0-1.2-.9-2.1-2.1-2.1s-2.1.9-2.1,2.1.4,27.2,32.2,40.5c.3,0,.5.2.8.2.8,0,1.6-.5,1.9-1.3.5-1.1,0-2.3-1.1-2.8Z"></path>
                <path class="cls-4" d="M468.2,307c-7.2,0-10.6-3-14.5-6.4-4-3.5-8.5-7.4-17.3-7.4s-13.3,4-17.3,7.4c-3.9,3.4-7.4,6.4-14.5,6.4s-10.6-3-14.5-6.4c-4-3.5-8.5-7.4-17.3-7.4s-13.3,4-17.3,7.4c-3.9,3.4-7.4,6.4-14.5,6.4s-10.6-3-14.5-6.4c-4-3.5-8.5-7.4-17.3-7.4s-2.1.9-2.1,2.1.9,2.1,2.1,2.1c7.2,0,10.6,3,14.5,6.4,4,3.5,8.5,7.4,17.3,7.4s13.3-4,17.3-7.4c3.9-3.4,7.4-6.4,14.5-6.4s10.6,3,14.5,6.4c4,3.5,8.5,7.4,17.3,7.4s13.3-4,17.3-7.4c3.9-3.4,7.4-6.4,14.5-6.4s10.6,3,14.5,6.4c4,3.5,8.5,7.4,17.3,7.4s2.1-.9,2.1-2.1c0-1.2-.9-2.1-2.1-2.1Z"></path>
                <path class="cls-4" d="M158.1,293.1c-8.7,0-13.3,4-17.3,7.4-3.9,3.4-7.4,6.4-14.5,6.4s-10.6-3-14.5-6.4c-4-3.5-8.5-7.4-17.3-7.4s-13.3,4-17.3,7.4c-3.9,3.4-7.4,6.4-14.5,6.4s-10.6-3-14.5-6.4c-4-3.5-8.5-7.4-17.3-7.4s-13.3,4-17.3,7.4c-4,3.5-7.4,6.5-14.5,6.5s-2.1.9-2.1,2.1.9,2.1,2.1,2.1c8.7,0,13.3-4,17.3-7.4,3.9-3.4,7.4-6.4,14.5-6.4s10.6,3,14.5,6.4c4,3.5,8.5,7.4,17.3,7.4s13.3-4,17.3-7.4c3.9-3.4,7.4-6.4,14.5-6.4s10.6,3,14.5,6.4c4,3.5,8.5,7.4,17.3,7.4s13.3-4,17.3-7.4c3.9-3.4,7.4-6.4,14.5-6.4s2.1-.9,2.1-2.1c0-1.3-1-2.2-2.1-2.2Z"></path>
                <path class="cls-4" d="M51.3,235.4c-1.2,0-2.1.9-2.1,2.1v51.5c0,1.2.9,2.1,2.1,2.1s2.1-.9,2.1-2.1v-51.5c0-1.2-.9-2.1-2.1-2.1Z"></path>
                <path class="cls-4" d="M10.3,244.4c-1.2,0-2.1.9-2.1,2.1v42.5c0,1.2.9,2.1,2.1,2.1s2.1-.9,2.1-2.1v-42.5c0-1.2-1-2.1-2.1-2.1Z"></path>
                <path class="cls-4" d="M21.9,64.4c-21.3,0-27.6,10.8-27.9,11.2-.6,1-.2,2.3.8,2.8,1,.6,2.3.2,2.9-.8.2-.4,5.6-9.1,24.3-9.1s27.4,18,27.5,18.2c.4.8,1.1,1.2,1.9,1.2s.6,0,.9-.2c1-.5,1.5-1.7,1-2.8-.5-.7-10-20.5-31.4-20.5Z"></path>
                <path class="cls-4" d="M82.8,53.8c-20-5.6-35.8-39.5-35.9-39.8-.5-1.1-1.7-1.5-2.8-1s-1.5,1.7-1,2.8c.7,1.5,16.7,36,38.6,42.1.2,0,.4,0,.6,0,.9,0,1.8-.6,2-1.5.3-1.3-.4-2.4-1.5-2.7Z"></path>
                <path class="cls-4" d="M209.6,43.4c-1-.6-2.3-.3-2.9.7,0,0-4.3,6.9-10.3,9.8-1.3.6-2.6,1.2-3.9,1.8-12.4,5.7-24.2,11-31.4,25.3-.5,1-.1,2.3.9,2.8.3.2.6.2.9.2.8,0,1.5-.4,1.9-1.1,6.6-13,17.2-17.8,29.4-23.4,1.3-.6,2.6-1.2,3.9-1.8,7.2-3.4,12-11.1,12.2-11.4.6-1,.3-2.3-.7-2.9Z"></path>
                <g>
                  <path class="cls-4" d="M206.2,262.8c-1,.5-1.5,1.7-1,2.8.1.1,5.8,12.7-2,38.7-.3,1.1.3,2.3,1.4,2.6.2.1.4.1.6.1.9,0,1.7-.6,2-1.5,8.2-27.5,2-41.1,1.7-41.7-.5-1-1.7-1.5-2.7-1Z"></path>
                  <path class="cls-4" d="M252.3,265.6c.5-1,0-2.3-1-2.8s-2.3,0-2.8,1-6.5,14.2,1.7,41.7c.3.9,1.1,1.5,2,1.5s.4,0,.6-.1c1.1-.3,1.7-1.5,1.4-2.6-7.6-25.7-2-38.5-1.9-38.7Z"></path>
                </g>
                <g>
                  <rect class="cls-3" x="177.2" y="304.9" width="103.2" height="21.2"></rect>
                  <path class="cls-3" d="M280.3,302.8h-103.1c-1.2,0-2.1.9-2.1,2.1v21.2c0,1.2.9,2.1,2.1,2.1h103.2c1.2,0,2.1-.9,2.1-2.1v-21.2c-.1-1.2-1-2.1-2.2-2.1ZM278.2,324h-99v-17h99v17Z"></path>
                </g>
                <path class="cls-4" d="M346,493.6H-32v4.2h378c14.6,0,26.6,11.9,26.6,26.6v26.8h4.2v-26.8c-.1-17-13.9-30.8-30.8-30.8Z"></path>
                <path class="cls-4" d="M448.7,360.7h-143c-1.2,0-2.1.9-2.1,2.1v132.9c0,1.2.9,2.1,2.1,2.1h40.3c14.6,0,26.6,11.9,26.6,26.6v26.8h4.2v-26.8c0-17-13.8-30.8-30.8-30.8h-38.1v-128.7h138.8v186.3h4.2v-188.4c-.1-1.1-1-2.1-2.2-2.1Z"></path>
                <path class="cls-4" d="M71.9,401.1c-26.7,0-48.4,21.7-48.4,48.4s21.7,48.4,48.4,48.4,48.4-21.7,48.4-48.4c-.1-26.7-21.8-48.4-48.4-48.4ZM71.9,493.6c-24.4,0-44.2-19.8-44.2-44.2s19.8-44.2,44.2-44.2,44.2,19.8,44.2,44.2c-.1,24.4-19.9,44.2-44.2,44.2Z"></path>
                <path class="cls-4" d="M205.2,401.1c-26.7,0-48.4,21.7-48.4,48.4s21.7,48.4,48.4,48.4,48.4-21.7,48.4-48.4c0-26.7-21.8-48.4-48.4-48.4ZM205.2,493.6c-24.4,0-44.2-19.8-44.2-44.2s19.8-44.2,44.2-44.2,44.2,19.8,44.2,44.2-19.9,44.2-44.2,44.2Z"></path>
                <path class="cls-4" d="M32.6,395.4c-17.3,12.5-27.6,32.8-27.6,54.1s.9,2.1,2.1,2.1,2.1-.9,2.1-2.1c0-20,9.7-38.9,25.9-50.7.9-.7,1.1-2,.5-2.9-.7-1-2-1.2-3-.5Z"></path>
                <path class="cls-4" d="M232.9,393.8c-1-.5-2.3-.1-2.8.9s-.1,2.3.9,2.8c15.5,7.7,26.6,21.7,30.6,38.5.2,1,1.1,1.6,2,1.6s.3,0,.5-.1c1.1-.3,1.8-1.4,1.6-2.5-4.3-17.9-16.2-33-32.8-41.2Z"></path>
                <path class="cls-4" d="M426.5,388.4h-98.5c-1.2,0-2.1.9-2.1,2.1v42.5c0,1.2.9,2.1,2.1,2.1h98.5c1.2,0,2.1-.9,2.1-2.1v-42.5c0-1.1-.9-2.1-2.1-2.1ZM424.4,430.9h-94.4v-38.3h94.4v38.3Z"></path>
                <path class="cls-4" d="M426.5,454.6h-98.5c-1.2,0-2.1.9-2.1,2.1s.9,2.1,2.1,2.1h98.5c1.2,0,2.1-.9,2.1-2.1s-.9-2.1-2.1-2.1Z"></path>
                <path class="cls-4" d="M426.5,476.1h-49.3c-1.2,0-2.1.9-2.1,2.1s.9,2.1,2.1,2.1h49.3c1.2,0,2.1-.9,2.1-2.1s-.9-2.1-2.1-2.1Z"></path>
                <path class="cls-4" d="M462.5,394.9h-12.1c-.6,0-1.3,0-1.9.1-1.1.1-1.9,1-1.9,2.1v42c0,1.1.8,2,1.9,2.1.6.1,1.3.1,1.9.1h12.1c11.1,0,20.1-9,20.1-20.1v-6.2c-.1-11.1-9.1-20.1-20.1-20.1ZM478.4,421.2c0,8.8-7.1,15.9-15.9,15.9h-11.7v-38h11.7c8.8,0,15.9,7.1,15.9,15.9v6.2Z"></path>
                <path class="cls-4" d="M531.1,366.6h-47.6c-10.6,0-19.2-8.6-19.2-19.2s8.6-19.2,19.2-19.2h45.4c8.9,0,16.2-7.3,16.2-16.2v-12.2c0-1.2-.9-2.1-2.1-2.1s-2.1.9-2.1,2.1v12.2c0,6.6-5.4,12-12,12h-45.4c-12.9,0-23.4,10.5-23.4,23.4s10.5,23.4,23.4,23.4h47.6c12.4,0,22.5,10.1,22.5,22.5s-10.1,22.5-22.5,22.5h-50.7c-1.2,0-2.1.9-2.1,2.1s.9,2.1,2.1,2.1h50.7c14.7,0,26.7-12,26.7-26.7,0-14.7-12-26.7-26.7-26.7Z"></path>
                <path class="cls-4" d="M567.1,331.6c-5.5,0-10.1,4.5-10.1,10.1s4.5,10.1,10.1,10.1,10.1-4.5,10.1-10.1-4.5-10.1-10.1-10.1ZM567.1,347.6c-3.2,0-5.9-2.6-5.9-5.9s2.6-5.9,5.9-5.9,5.9,2.6,5.9,5.9-2.7,5.9-5.9,5.9Z"></path>
                <path class="cls-4" d="M597.2,365.1c-9.7,0-17.6,7.9-17.6,17.6s7.9,17.6,17.6,17.6,17.6-7.9,17.6-17.6-7.9-17.6-17.6-17.6ZM597.2,396c-7.4,0-13.4-6-13.4-13.4s6-13.4,13.4-13.4,13.4,6,13.4,13.4c0,7.4-6,13.4-13.4,13.4Z"></path>
                <g>
                  <path class="cls-3" d="M511.4,274.5c0,14,11.3,25.3,25.3,25.3h3.5c14,0,25.3-11.3,25.3-25.3v-9.8h-54v9.8h-.1Z"></path>
                  <path class="cls-3" d="M565.4,262.6h-54c-1.2,0-2.1.9-2.1,2.1v9.8c0,15.1,12.3,27.4,27.4,27.4h3.5c15.1,0,27.4-12.3,27.4-27.4v-9.8c-.1-1.1-1.1-2.1-2.2-2.1ZM563.3,274.5c0,12.8-10.4,23.2-23.2,23.2h-3.5c-12.8,0-23.2-10.4-23.2-23.2v-7.7h49.8v7.7h.1Z"></path>
                </g>
                <path class="cls-4" d="M574.3,262.6h-71.8c-1.2,0-2.1.9-2.1,2.1s.9,2.1,2.1,2.1h71.8c1.2,0,2.1-.9,2.1-2.1,0-1.1-1-2.1-2.1-2.1Z"></path>
                <g>
                  <path class="cls-4" d="M522,234.4c-1.2,0-2.1.9-2.1,2.1v27.1c0,1.2.9,2.1,2.1,2.1s2.1-.9,2.1-2.1v-27.1c0-1.1-.9-2.1-2.1-2.1Z"></path>
                  <path class="cls-4" d="M554.7,234.4c-1.2,0-2.1.9-2.1,2.1v27.1c0,1.2.9,2.1,2.1,2.1s2.1-.9,2.1-2.1v-27.1c0-1.1-.9-2.1-2.1-2.1Z"></path>
                </g>
                <path class="cls-4" d="M671.9,44.9c-20.5,0-37.1,16.7-37.1,37.1s16.7,37.1,37.1,37.1,15.3-2.4,21.6-6.9c.9-.7,1.2-2,.5-2.9s-2-1.2-2.9-.5c-5.6,4-12.2,6.1-19.2,6.1-18.1.1-32.9-14.7-32.9-32.9s14.8-32.9,32.9-32.9,32.9,14.8,32.9,32.9.9,2.1,2.1,2.1,2.1-.9,2.1-2.1c0-20.4-16.6-37.1-37.1-37.1Z"></path>
                <path class="cls-4" d="M721.4,102.6c-1-.5-2.3,0-2.8,1-8.4,18.1-26.7,29.8-46.7,29.8s-24.3-4.5-33.7-12.5c-.9-.8-2.2-.7-3,.2-.8.9-.7,2.2.2,3,10.1,8.8,23,13.6,36.4,13.6,21.6,0,41.4-12.7,50.5-32.3.6-1.1,0-2.3-.9-2.8Z"></path>
                <path class="cls-4" d="M713.5,72.2l-6.6,8.8-8.1-6c-.9-.7-2.2-.5-2.9.4s-.5,2.2.4,2.9l9.8,7.3c.4.3.8.4,1.2.4h.3c.5,0,1-.4,1.4-.8l7.8-10.5c.7-.9.5-2.2-.4-2.9s-2.3-.6-2.9.4Z"></path>
                <g>
                  <path class="cls-3" d="M822,63.6c-3.6,0-7.1.8-10.2,2.1-5.6-6.3-14-10.3-23.4-10.3-16.7,0-30.3,12.7-30.3,28.3s.4,5.2,1.1,7.7h88c0-.9.2-1.8.2-2.7.1-13.8-11.3-25.1-25.4-25.1Z"></path>
                  <path class="cls-3" d="M822,61.5c-3.3,0-6.6.6-9.6,1.7-6.1-6.3-14.8-9.9-23.9-9.9-17.9,0-32.4,13.6-32.4,30.4s.4,5.6,1.2,8.3c.3.9,1.1,1.5,2,1.5h88c1.1,0,2-.8,2.1-1.9,0-1,.2-2,.2-3,0-14.9-12.4-27.1-27.6-27.1ZM845.4,89.4h-84.5c-.4-1.8-.7-3.7-.7-5.6,0-14.5,12.6-26.2,28.2-26.2s16.4,3.5,21.8,9.6c.6.7,1.6.9,2.4.5,3-1.3,6.1-1.9,9.4-1.9,12.9,0,23.3,10.3,23.3,23,0,0,0,.4,0,.6Z"></path>
                </g>
                <path class="cls-4" d="M771.4,106.6c-1.1-.5-2.3,0-2.8,1.1l-11.1,24.7c-.5,1.1,0,2.3,1.1,2.8.3.1.6.2.9.2.8,0,1.6-.5,1.9-1.2l11.1-24.7c.4-1.2-.1-2.5-1.1-2.9Z"></path>
                <path class="cls-4" d="M790.6,106.6c-1.1-.5-2.3,0-2.8,1.1l-16.9,38.1c-.5,1.1,0,2.3,1.1,2.8.3.1.6.2.8.2.8,0,1.6-.5,1.9-1.2l16.9-38.1c.5-1.2.1-2.5-1-2.9Z"></path>
                <path class="cls-4" d="M809.8,106.6c-1.1-.5-2.3,0-2.8,1.1l-18.5,42.1c-.5,1.1,0,2.3,1.1,2.8.3.1.6.2.8.2.8,0,1.6-.5,1.9-1.3l18.5-42.1c.6-1.1.1-2.4-1-2.8Z"></path>
                <path class="cls-4" d="M829.1,106.5c-1.1-.5-2.3,0-2.8,1.1l-14.2,32.5c-.5,1.1,0,2.3,1.1,2.8.3.1.6.2.8.2.8,0,1.6-.5,1.9-1.3l14.2-32.5c.5-1.1,0-2.3-1-2.8Z"></path>
                <path class="cls-4" d="M950.7-295.3c-.6-1-1.9-1.2-2.9-.6s-1.2,1.9-.6,2.9l12.9,19.5c2.1,3.2,2.3,7.1.5,10.5s-5.2,5.4-9,5.4h-27.4c-1.2,0-2.1.9-2.1,2.1s.9,2.1,2.1,2.1h27.4c5.4,0,10.2-2.8,12.7-7.6,2.6-4.8,2.3-10.3-.7-14.8l-12.9-19.5Z"></path>
                <path class="cls-4" d="M928-329.8c-3.1-4.6-8.2-7.4-13.8-7.4s-10.7,2.8-13.8,7.4l-10.5,16c-.6,1-.4,2.3.6,2.9s2.3.4,2.9-.6l10.5-16c2.3-3.5,6.1-5.5,10.3-5.5s8,2.1,10.3,5.5l14.5,22.1c.4.6,1.1.9,1.8.9s.8-.1,1.2-.3c1-.6,1.2-1.9.6-2.9l-14.6-22.1Z"></path>
                <path class="cls-4" d="M908.8-257.5h-29.5c-4.3,0-8.1-2.3-10.2-6.1-2-3.8-1.9-8.2.5-11.8l16.4-24.9c.6-1,.4-2.3-.6-2.9s-2.3-.4-2.9.6l-16.4,24.9c-3.2,4.9-3.5,10.9-.7,16.1s8,8.3,13.8,8.3h29.5c1.2,0,2.1-.9,2.1-2.1s-.9-2.1-2-2.1Z"></path>
                <path class="cls-4" d="M886.6-302.4c-.3-1.1-1.4-1.8-2.6-1.5l-10.2,2.7c-1.1.3-1.8,1.4-1.5,2.6.3,1.1,1.4,1.8,2.6,1.5l8.2-2.2,2.2,8.2c.3.9,1.1,1.5,2,1.5s.4,0,.6-.1c1.1-.3,1.8-1.5,1.5-2.6l-2.8-10.1Z"></path>
                <path class="cls-4" d="M944-318.8c-1.1-.2-2.2.5-2.5,1.6l-1.8,8.2-8.3-1.8c-1.1-.2-2.2.5-2.5,1.6-.2,1.1.5,2.2,1.6,2.5l10.4,2.2h.4c1,0,1.8-.7,2-1.6l2.3-10.3c.2-1-.5-2.1-1.6-2.4Z"></path>
                <path class="cls-4" d="M932.4-264.4c-.8-.8-2.1-.9-3-.1l-7.8,7.2c-.8.8-.9,2.1,0,2.9l7.1,7.7c.4.4,1,.7,1.5.7s1-.2,1.4-.6c.9-.8.9-2.1,0-3l-5.7-6.2,6.2-5.8c1.1-.6,1.1-1.9.3-2.8Z"></path>
                <path class="cls-4" d="M559.9-106.9c-.6-1-1.8-1.4-2.8-.8s-1.4,1.8-.8,2.8l21.6,38.9c.4.7,1.1,1.1,1.8,1.1s.7,0,1-.3c1-.6,1.4-1.8.8-2.8l-21.6-38.9Z"></path>
                <path class="cls-4" d="M671.5-160.3c-6.1,0-11.1,5-11.1,11.1s5,11.1,11.1,11.1,11.1-5,11.1-11.1-5-11.1-11.1-11.1ZM671.5-142.3c-3.8,0-6.9-3.1-6.9-6.9s3.1-6.9,6.9-6.9,6.9,3.1,6.9,6.9-3.1,6.9-6.9,6.9Z"></path>
                <path class="cls-4" d="M671.5-142.3c-1.2,0-2.1.9-2.1,2.1V-6.7c0,1.2.9,2.1,2.1,2.1s2.1-.9,2.1-2.1v-133.4c0-1.2-1-2.2-2.1-2.2Z"></path>
                <path class="cls-4" d="M663-112.6c-1.2,0-2.1.9-2.1,2.1V-7.4c0,1.2.9,2.1,2.1,2.1s2.1-.9,2.1-2.1v-103.1c0-1.2-.9-2.1-2.1-2.1Z"></path>
                <path class="cls-4" d="M1006.9,23.1c-6.6-3.5-13.5-7.2-27.1-7.2s-20.5,3.6-27.1,7.2c-6.5,3.4-12.6,6.7-25.2,6.7s-18.7-3.2-25.2-6.7c-6.6-3.5-13.5-7.2-27.1-7.2s-20.5,3.6-27.1,7.2c-6.5,3.4-12.6,6.7-25.2,6.7s-18.7-3.2-25.2-6.7c-6.6-3.5-13.5-7.2-27.1-7.2s-20.5,3.6-27.1,7.2c-6.5,3.4-12.6,6.7-25.2,6.7s-18.7-3.2-25.1-6.7c-6.6-3.5-13.5-7.2-27.1-7.2s-20.5,3.6-27.1,7.2c-6.5,3.4-12.6,6.7-25.1,6.7s-18.7-3.2-25.2-6.7c-6.6-3.5-13.5-7.2-27.1-7.2s-2.1.9-2.1,2.1.9,2.1,2.1,2.1c12.5,0,18.7,3.2,25.1,6.7,6.6,3.5,13.5,7.2,27.1,7.2s20.5-3.6,27.1-7.2c6.5-3.4,12.6-6.7,25.2-6.7s18.7,3.2,25.1,6.7c6.6,3.5,13.5,7.2,27.1,7.2s20.5-3.6,27.1-7.2c6.5-3.4,12.6-6.7,25.2-6.7s18.7,3.2,25.2,6.7c6.6,3.5,13.5,7.2,27.1,7.2s20.5-3.6,27.1-7.2c6.5-3.4,12.6-6.7,25.2-6.7s18.7,3.2,25.2,6.7c6.6,3.5,13.5,7.2,27.1,7.2s20.5-3.6,27.1-7.2c6.5-3.4,12.6-6.7,25.2-6.7s18.7,3.2,25.2,6.7c6.1,3.2,12.4,6.5,23.8,7.1v-4.2c-10.4-.5-16-3.5-21.9-6.6Z"></path>
                <path class="cls-4" d="M1006.9-.4c-6.6-3.5-13.5-7.2-27.1-7.2s-20.5,3.6-27.1,7.2c-6.5,3.4-12.6,6.7-25.2,6.7s-18.7-3.2-25.2-6.7c-6.6-3.5-13.5-7.2-27.1-7.2s-20.5,3.6-27.1,7.2c-6.4,3.4-12.5,6.7-25.1,6.7s-18.6-3.3-25.1-6.7c-6.6-3.5-13.5-7.2-27.1-7.2s-20.5,3.6-27.1,7.2c-6.5,3.4-12.6,6.7-25.2,6.7s-18.7-3.2-25.1-6.7c-6.6-3.5-13.5-7.2-27.1-7.2s-20.5,3.6-27.1,7.2c-6.5,3.4-12.7,6.7-25.2,6.7s-18.7-3.2-25.2-6.7c-6.6-3.5-13.5-7.2-27.1-7.2s-2.1.9-2.1,2.1.9,2.1,2.1,2.1c12.5,0,18.7,3.2,25.1,6.7,6.6,3.5,13.5,7.2,27.1,7.2s20.5-3.6,27.1-7.2c6.5-3.4,12.6-6.7,25.2-6.7s18.7,3.2,25.1,6.7c6.6,3.5,13.5,7.2,27.1,7.2s20.5-3.6,27.1-7.2c6.5-3.4,12.6-6.7,25.2-6.7s18.7,3.2,25.2,6.7c6.6,3.5,13.5,7.2,27.1,7.2s20.5-3.6,27.1-7.2c6.5-3.4,12.6-6.7,25.2-6.7s18.7,3.2,25.2,6.7c6.6,3.5,13.5,7.2,27.1,7.2s20.5-3.6,27.1-7.2c6.5-3.4,12.6-6.7,25.2-6.7s18.7,3.2,25.2,6.7c6.1,3.2,12.4,6.5,23.8,7.1v-4.2c-10.5-.6-16.1-3.5-22-6.6Z"></path>
                <path class="cls-4" d="M1027.2,474.3c-14.3-9.1-29.7-10.7-42.6-4.3-7.7,4.6-14.2,8-22.1,6.4-5.4-.8-10-2.6-14.9-4.6-5.3-2.2-10.9-4.4-17.5-5.2-1.1-.1-2.2.7-2.3,1.8,0,1.1.7,2.2,1.8,2.3,6.1.7,11.1,2.7,16.4,4.9,4.9,2,10,4,15.8,4.9,1.7.3,3.2.5,4.8.5,7.1,0,13.2-3.3,20-7.4,11.3-5.7,25.3-4.2,38.3,4.1,1,.6,2.3.3,2.9-.6.7-.9.4-2.2-.6-2.8Z"></path>
                <path class="cls-4" d="M1027.2,501.8c-16.2-10.6-37.2-10-52.4,1.5-7.7.7-15.4-1.8-23.6-4.4-6.9-2.2-14-4.5-21.3-4.8-1.1-.1-2.1.8-2.2,2,0,1.2.8,2.1,2,2.2,6.7.3,13.6,2.5,20.2,4.6,7.3,2.3,14.7,4.7,22.3,4.7s2.4-.1,3.7-.2c.4,0,.7-.2,1.1-.4,13.8-10.7,33.1-11.4,48-1.7,1,.6,2.3.4,2.9-.6s.3-2.3-.7-2.9Z"></path>
                <path class="cls-4" d="M1026.9,529.1c-1.8-.7-3.5-1.6-5.2-2.4-4.4-2.1-8.9-4.3-14.4-4.9-7.7-.8-15,.5-21.8,3.9-5.3,2.6-10.4,5.1-16.8,5.5-7,.4-13-2-19.3-4.6-6-2.4-12.2-5-19.4-5h0c-1.2,0-2.1.9-2.1,2.1s.9,2.1,2.1,2.1h0c6.4,0,12,2.3,17.9,4.7,6,2.4,12.2,5,19.4,5h1.7c7.3-.4,12.9-3.2,18.4-5.9,6.1-3,12.5-4.2,19.5-3.5,4.8.5,8.8,2.4,13,4.5,1.7.8,3.5,1.7,5.4,2.5,1.1.4,2.3,0,2.7-1.1.5-1.2,0-2.5-1.1-2.9Z"></path>
                <path class="cls-4" d="M1027.2,421.2c-16.2-10.6-37.2-10-52.4,1.5-7.7.7-15.4-1.8-23.6-4.4-6.9-2.2-14-4.5-21.3-4.8-1.1-.1-2.1.8-2.2,2,0,1.2.8,2.1,2,2.2,6.7.3,13.6,2.5,20.2,4.6,7.3,2.3,14.7,4.7,22.3,4.7s2.4-.1,3.7-.2c.4,0,.7-.2,1.1-.4,13.8-10.7,33.1-11.4,48-1.7,1,.6,2.3.4,2.9-.6.6-1,.3-2.3-.7-2.9Z"></path>
                <path class="cls-4" d="M1026.9,448.5c-1.8-.7-3.5-1.6-5.2-2.4-4.4-2.1-8.9-4.3-14.4-4.9-7.7-.8-15,.5-21.8,3.9-5.3,2.6-10.4,5.1-16.8,5.5-7,.4-13-2-19.3-4.6-6-2.4-12.2-5-19.4-5h0c-1.2,0-2.1.9-2.1,2.1s.9,2.1,2.1,2.1h0c6.4,0,12,2.3,17.9,4.7,6,2.4,12.2,5,19.4,5h1.7c7.3-.4,12.9-3.2,18.4-5.9,6.1-3,12.5-4.2,19.5-3.5,4.8.5,8.8,2.4,13,4.5,1.7.8,3.5,1.7,5.4,2.5,1.1.4,2.3-.1,2.7-1.1.5-1.3,0-2.5-1.1-2.9Z"></path>
                <path class="cls-4" d="M777.1-397.9c-.4-.9-1.4-1.4-2.4-1.2-1,.2-1.6,1.1-1.6,2v118.6c0,.9.6,1.7,1.5,2,.2.1.4.1.6.1.7,0,1.4-.4,1.8-1l31.8-49.6c.4-.6.4-1.4,0-2l-31.8-68.9ZM777.2-285.6v-101.9l27.4,59.3-27.4,42.6Z"></path>
                <path class="cls-4" d="M878.9-221.6l-102.7-59.3c-.8-.5-1.8-.3-2.5.3-.7.6-.8,1.6-.4,2.5l27,52.4c.3.6,1,1.1,1.7,1.1l75.7,6.9h.2c.9,0,1.7-.6,2-1.5.2-.9-.2-1.9-1-2.4ZM803.5-228.6l-23.2-45,88.3,51-65.1-6Z"></path>
                <path class="cls-4" d="M775.2-280.7l-58.9-2.8c-.7,0-1.4.3-1.8.9l-43.8,62.1c-.6.8-.5,1.9.2,2.6.4.4,1,.7,1.5.7s.7-.1,1-.3l102.7-59.3c.8-.5,1.2-1.4,1-2.3-.1-.9-.9-1.6-1.9-1.6ZM679.7-225.9l37.7-53.3,50.6,2.4-88.3,50.9Z"></path>
                <g>
                  <path class="cls-4" d="M775.7-291.7c-6.7,0-12.2,5.4-12.2,12.2s5.4,12.2,12.2,12.2,12.2-5.4,12.2-12.2-5.5-12.2-12.2-12.2Z"></path>
                  <path class="cls-4" d="M775.7-293.8c-7.9,0-14.3,6.4-14.3,14.3s6.4,14.3,14.3,14.3,14.3-6.4,14.3-14.3-6.4-14.3-14.3-14.3ZM775.7-269.5c-5.6,0-10.1-4.5-10.1-10.1s4.5-10.1,10.1-10.1,10.1,4.5,10.1,10.1-4.5,10.1-10.1,10.1Z"></path>
                </g>
                <path class="cls-4" d="M671.5-207.3c-1.2,0-2.1.9-2.1,2.1v39.5c0,1.2.9,2.1,2.1,2.1s2.1-.9,2.1-2.1v-39.5c0-1.2-1-2.1-2.1-2.1Z"></path>
                <path class="cls-4" d="M652.7-145l-34.2,19.7c-1,.6-1.3,1.9-.8,2.9.4.7,1.1,1,1.8,1s.7,0,1-.3l34.2-19.7c1-.6,1.3-1.9.8-2.9-.5-.9-1.8-1.2-2.8-.7Z"></path>
                <path class="cls-4" d="M722.8-125.2l-34.2-19.8c-1-.6-2.3-.2-2.9.8-.6,1-.2,2.3.8,2.9l34.2,19.7c.3.2.7.3,1,.3.7,0,1.4-.4,1.8-1,.7-1.1.3-2.4-.7-2.9Z"></path>
                <path class="cls-4" d="M771.8-251.5c-1.1-.1-2.2.8-2.2,2l-15.2,233.5c0,1.2.8,2.1,2,2.2h0c1.1,0,2-.9,2.1-2l15.2-233.5c.1-1.1-.8-2.1-2-2.2Z"></path>
                <path class="cls-4" d="M777.6-206.6c-1.2,0-2.1,1-2,2.2l7.8,188.6c0,1.1,1,2,2.1,2h0c1.2,0,2.1-1,2-2.2l-7.8-188.6c0-1.1-1-2-2.2-2Z"></path>
                <path class="cls-4" d="M799.7-58.1h-55.9c-1.2,0-2.1.9-2.1,2.1s.9,2.1,2.1,2.1h55.9c1.2,0,2.1-.9,2.1-2.1s-1-2.1-2.1-2.1Z"></path>
                <path class="cls-4" d="M799.7-40.6h-55.9c-1.2,0-2.1.9-2.1,2.1s.9,2.1,2.1,2.1h55.9c1.2,0,2.1-.9,2.1-2.1s-1-2.1-2.1-2.1Z"></path>
                <path class="cls-4" d="M834.4-188c-.8-1-2.5-1-3.3,0l-16.8,20.9c-.7.9-.6,2.2.3,2.9.9.7,2.2.6,2.9-.3l15.2-18.9,15.2,18.9c.4.5,1,.8,1.6.8s.9-.2,1.3-.5c.9-.7,1-2,.3-2.9l-16.7-20.9Z"></path>
                <path class="cls-4" d="M832.8-188.8c-1.2,0-2.1.9-2.1,2.1V-15.9c0,1.2.9,2.1,2.1,2.1s2.1-.9,2.1-2.1v-170.8c0-1.2-1-2.1-2.1-2.1Z"></path>
                <g>
                  <path class="cls-4" d="M130.6-44.7c-.6,0-1.1,0-1.6,0,.2-3.5-.1-9.6-3-13.4-1.5-2-3.5-3.1-6-3.4-2.5-.3-4.6.6-5.8,2.4-1.7,2.4-1.5,6.2.4,9.7,2.1,3.9,5.6,6.7,10,8V-2c0,1.2.9,2.1,2.1,2.1s2.1-.9,2.1-2.1v-38.6c.6,0,1.2,0,1.8,0,1.2,0,2.1-.9,2.1-2.1s-1-2.1-2.1-2.1ZM124.8-45.8c-4.1-1.6-5.9-4.5-6.5-5.7-1.3-2.4-1.2-4.5-.6-5.4,0-.2.4-.6,1.4-.6h.4c1.3,0,2.3.7,3.1,1.8,1.9,2.4,2.3,6.8,2.2,9.9Z"></path>
                  <path class="cls-4" d="M141.2-61.6c-2.5.3-4.5,1.4-6,3.4-2.9,3.8-3.1,9.9-3,13.4-.5,0-1.1,0-1.6,0-1.2,0-2.1.9-2.1,2.1s.9,2.1,2.1,2.1,1.2,0,1.8,0V-2c0,1.2.9,2.1,2.1,2.1s2.1-.9,2.1-2.1v-39.4c4.4-1.3,7.9-4.1,10-8,1.9-3.6,2-7.3.4-9.7-1.3-1.9-3.3-2.8-5.8-2.5ZM142.9-51.4c-.6,1.1-2.5,4.1-6.5,5.7-.1-3.2.3-7.5,2.1-9.9.8-1,1.8-1.6,3.1-1.8h.4c1,0,1.3.5,1.4.6.7.9.8,2.9-.5,5.4Z"></path>
                </g>
                <path class="cls-4" d="M92.5-103.1c-.3,0-24.4,13.1-19.1,47.1.2,1,1.1,1.8,2.1,1.8h.3c1.1-.2,1.9-1.2,1.8-2.4-4.8-31,16-42.4,16.9-42.8,1-.5,1.4-1.8.9-2.8-.6-1.1-1.9-1.5-2.9-.9Z"></path>
                <path class="cls-4" d="M369-26.4h-10.6c-2-10.4-6.3-20.4-12.4-29.1l7.7-7.7c.8-.8.8-2.1,0-3l-18.1-18.1c-.8-.8-2.2-.8-3,0l-8.1,8.1c-8.8-5.7-18.4-9.5-28.8-11.2v-12.1c0-1.2-.9-2.1-2.1-2.1h-25.6c-1.2,0-2.1.9-2.1,2.1v12.9c-9.8,2.2-19,6.2-27.2,12l-9.6-9.6c-.8-.8-2.2-.8-3,0l-18.1,18.1c-.8.8-.8,2.1,0,3l9.9,9.9c-5.3,8.2-9,17.3-10.8,26.9h-14.4c-1.2,0-2.1.9-2.1,2.1V1.3c0,1.2.9,2.1,2.1,2.1h16.3c1.2,0,2.1-.9,2.1-2.1s-.9-2.1-2.1-2.1h-14v-21.4h14c1,0,1.9-.7,2.1-1.7,1.8-10.3,5.6-19.8,11.5-28.4.6-.8.5-1.9-.3-2.7l-9.7-9.7,15.1-15.1,9.4,9.4c.7.7,1.9.8,2.7.2,8.6-6.3,18.3-10.6,28.7-12.7,1-.2,1.7-1.1,1.7-2.1v-12.5h21.4v11.8c0,1,.8,1.9,1.8,2.1,10.9,1.6,21.1,5.6,30.2,11.8.8.6,1.9.5,2.7-.3l7.8-7.8,15.1,15.1-7.5,7.5c-.7.7-.8,1.9-.2,2.7,6.6,9,11.1,19.6,13,30.6.2,1,1,1.7,2.1,1.7h10.3v9.8c0,1.2.9,2.1,2.1,2.1s2.1-.9,2.1-2.1v-11.9c0-1.1-.9-2-2.1-2Z"></path>
                <path class="cls-4" d="M281-69.5c-32,0-58,26-58,58s.9,2.1,2.1,2.1,2.1-.9,2.1-2.1c0-29.7,24.1-53.8,53.8-53.8s53.8,24.1,53.8,53.8.9,2.1,2.1,2.1,2.1-.9,2.1-2.1c0-32-26.1-58-58-58Z"></path>
                <path class="cls-4" d="M281-44.5c-18.2,0-33,14.8-33,33s.9,2.1,2.1,2.1,2.1-.9,2.1-2.1c0-15.9,12.9-28.8,28.8-28.8s28.8,12.9,28.8,28.8-.5,6-1.4,8.8c-.4,1.1.3,2.3,1.4,2.6C310,0,310.2,0,310.4,0c.9,0,1.7-.6,2-1.5,1-3.3,1.6-6.7,1.6-10.1,0-18.1-14.8-32.9-33-32.9Z"></path>
                <path class="cls-4" d="M537.7,466.5c0-14.6-11.9-26.5-26.5-26.5s-26.5,11.9-26.5,26.5.9,8,2.7,11.6c-6,6.2-9.4,14.5-9.4,23.2,0,18.3,14.9,33.2,33.2,33.2s33.2-14.9,33.2-33.2-3.4-17-9.4-23.2c1.8-3.6,2.7-7.6,2.7-11.6ZM540.3,501.3c0,16-13,29.1-29.1,29.1s-29.1-13-29.1-29.1,3.4-15.8,9.3-21.3c.7-.7.9-1.7.4-2.6-1.9-3.3-2.9-7.1-2.9-11,0-12.3,10-22.3,22.3-22.3s22.3,10,22.3,22.3-1,7.6-2.9,11c-.5.8-.3,1.9.4,2.6,5.9,5.5,9.3,13.3,9.3,21.3Z"></path>
                <path class="cls-4" d="M511.2,505.4c-1.2,0-2.1.9-2.1,2.1v43.7h4.2v-43.7c0-1.1-.9-2.1-2.1-2.1Z"></path>
                <g>
                  <circle class="cls-3" cx="720.5" cy="263.6" r="107.3"></circle>
                  <path class="cls-3" d="M720.5,154.3c-60.3,0-109.3,49.1-109.3,109.3s49.1,109.3,109.3,109.3,109.3-49.1,109.3-109.3-49-109.3-109.3-109.3ZM720.5,368.8c-58,0-105.2-47.2-105.2-105.2s47.2-105.2,105.2-105.2,105.2,47.2,105.2,105.2c-.1,58-47.2,105.2-105.2,105.2Z"></path>
                </g>
                <path class="cls-4" d="M714.2,288c-.6-3.8-2.4-6.7-5.2-8.6-4.4-3-11.1-3.6-20.1-1.7-4.5.9-8.6.2-11.5-2.2-2.9-2.3-4.4-6.1-4.4-10.8,0-8.7,5.5-12.5,14.7-18.8,1.6-1.1,3.4-2.3,5.2-3.6,12.7-9,14.9-14.3,17.7-22.9,2.5-7.4-1.7-10.3-6.5-13.7-1.9-1.3-4-2.8-6.2-4.8-3.4-3.1-4.2-4.7-4.8-6-1.1-2.2-2.1-3.4-6.5-5.2-4.5-1.8-7.9-.6-11.4.7-3.4,1.2-7.2,2.6-13.4,2-5-.5-9.3-3.3-13-8.3-.4-.5-.9-.8-1.5-.8s-1.2.2-1.6.6c-9.9,9.3-17.9,20.1-23.7,32.3-.3.6-.3,1.3,0,1.9,3.2,6.2,8.8,18,10.9,27.3,2.3,9.9,3.6,11.6,8.7,17.2,2,2.2,4.5,4.9,7.9,9.1,1.1,1.3,2.9,3.6,4.2,5.2-1.7.4-3.7,1.5-4.6,4.8v.5c-2.1,7.8-2,8.4,3,15.6l.8,1.1c2.8,4,2.6,4.8,2.4,6.9-.2,1.9-.5,4.4.4,9.2,1.5,8,5.3,9.3,10.5,11.2,2.9,1,6.5,2.3,11.1,5.1,1.3.8,5.1,3.1,6,4.2,0,.1-.2.3-.3.4-.9,1.3-2.4,3.5-2.4,7.8s-1.3,10-3.8,18.1c-.3,1,.2,2.1,1.2,2.5,3.4,1.4,6.9,2.7,10.6,3.8.2.1.4.1.6.1.4,0,.7-.1,1.1-.3.5-.3.9-.8,1-1.4,2.1-10.5,4.7-17.9,7.6-21.6,7.4-9.2,7.7-10.2,8.7-21.2v-.3c.3-2.9.3-4.8.4-6q0-2,1.8-4.5c.5-.7,1.2-1.6,2-2.8,5.2-7.5,4.5-10.8,3.2-17.9-.2-1.1-.5-2.5-.8-4.2ZM708.3,307.9c-.8,1.2-1.4,2.1-1.9,2.8-2.2,3.2-2.5,3.5-2.6,6.8,0,1.2,0,2.9-.4,5.7v.3c-1,10.2-1,10.6-7.8,19-3.2,3.9-5.9,11-8,21.1-2.1-.7-4.2-1.5-6.2-2.3,2.3-7.7,3.5-13.6,3.5-17.5s.9-4.4,1.7-5.5c.6-.9,1.4-2,1.1-3.6-.4-2-2.4-3.5-8.1-7-4.9-3-8.9-4.5-11.8-5.5-5-1.8-6.7-2.4-7.8-8-.8-4.2-.6-6.2-.3-7.9.4-2.9.4-4.8-3.1-9.9l-.8-1.1q-4.1-5.9-2.5-12.2v-.5c.6-1.8,1.3-1.8,2.7-1.8s2.4,0,3.1-1.4c.9-1.8-.2-3.2-6.1-10.5-3.5-4.3-6.2-7.2-8.1-9.3-4.8-5.2-5.7-6.2-7.7-15.3-2.1-9.3-7.5-20.8-10.8-27.3,5.2-10.6,12.2-20.2,20.7-28.5,4.1,4.8,9.1,7.5,14.5,8.1,7.1.7,11.6-.9,15.2-2.2,3.2-1.2,5.4-2,8.4-.7,3.4,1.4,3.7,1.9,4.4,3.2.7,1.4,1.8,3.6,5.7,7.1,2.4,2.2,4.7,3.8,6.6,5.2,5,3.5,6.3,4.7,4.9,8.9-2.6,7.9-4.6,12.5-16.2,20.8-1.8,1.3-3.5,2.4-5.1,3.6-9.6,6.6-16.5,11.3-16.5,22.3s2,10.9,5.9,14,9.2,4.2,14.9,3c7.7-1.6,13.5-1.2,16.9,1.1,1.9,1.3,3,3.2,3.5,5.9.3,1.6.5,3.1.8,4.4,1.1,6.6,1.5,8.6-2.7,14.7ZM655.1,278.9h0Z"></path>
                <path class="cls-4" d="M716.3,155.7c-.4-.8-1.2-1.2-2-1.2-15.2.9-29.9,4.8-43.4,11.8-.5.3-.9.7-1.1,1.3-.2.5,0,1.1.2,1.6,1.8,3.2,4.1,5.8,6.7,7.6,3.1,2.1,5.7,3,7.9,3.8,3.3,1.2,5.5,1.9,8.1,6,1.1,1.8,2,3.5,2.9,5.2,2.4,4.5,4.9,9.2,9.4,9.2s1.9-.2,3-.6l1.2-.5c5.9-2.2,14-5.3,13.3-20.3-.3-7.2-2.6-16.2-6.2-23.9ZM707.8,196l-1.3.5c-2.7,1-3.9-.4-7.2-6.6-.9-1.7-1.9-3.6-3.1-5.5-3.3-5.3-6.7-6.5-10.3-7.7-2.1-.7-4.3-1.5-6.9-3.3-1.6-1.1-3-2.6-4.3-4.4,12.1-5.8,24.9-9.3,38.3-10.2,3,7,5,14.7,5.3,21,.7,11.9-4.7,14-10.5,16.2Z"></path>
                <path class="cls-4" d="M794.6,183.3c-.8-.8-2.1-.7-2.9.1-1.3,1.3-2.6,2.4-3.9,3.3-3.5,2.4-6.9,2.7-10.2,3-5.7.5-11.5,1-15.3,11.6-2.6,7.4-1.3,12.2-.3,15.6,1.1,3.7,1.4,5-4.3,8.2-13.8,7.7-19.4,15.2-18.6,25.2,0,1.4.2,2.7.3,3.9.5,6.3.7,9.7,2.2,14.9.3,1,.4,1.8.6,2.6.8,4.6,1.9,7.7,15.3,18.2,6.5,5.1,10.6,11,13.6,15.3,3.1,4.4,5.1,7.4,8.2,7.4h0c2.7-.1,4.6-2.7,6-4.9,1.8-2.9,3.7-5.7,5.6-8.3,5.8-8.3,11.3-16,8.3-24-1.5-3.9-5-8.2-8.1-12.1-1.2-1.5-2.8-3.4-3.7-4.8.4.1.8.2,1.3.3,7.1,1.9,10.6,6.2,14.4,10.8,2.5,3,5,6.2,8.7,8.3,4.5,2.7,10.2,4.2,14.9,3.9,1-.1,1.8-.8,2-1.8.8-5.4,1.2-10.8,1.2-16.1-.2-30.7-13-60-35.4-80.6ZM824.7,277.4c-3.5-.2-7.6-1.4-10.8-3.3-3-1.8-5.2-4.5-7.5-7.3-3.8-4.6-8.1-9.9-16.5-12.2-2.8-.8-5.5-1.2-6.8.8-1.6,2.4.9,5.4,4.9,10.4,2.8,3.4,6.2,7.6,7.4,10.9,2.2,5.9-2.4,12.5-7.8,20.1-1.9,2.7-3.9,5.6-5.8,8.6-1.7,2.9-2.5,2.9-2.5,2.9h0c-.9,0-3.1-3.2-4.7-5.6-3.1-4.5-7.4-10.8-14.4-16.2-12.7-10-13.2-12.3-13.7-15.6-.2-.9-.3-1.9-.7-3.1-1.4-4.7-1.6-7.8-2.1-14,0-1.2-.2-2.5-.3-3.9-.6-8.1,4.3-14.4,16.5-21.2,8.1-4.5,7.7-8.1,6.3-13-.9-3.2-2-6.9.2-13,2.9-8,6.4-8.3,11.7-8.8,3.7-.3,7.8-.7,12.2-3.7,1-.7,2-1.5,3-2.4,20.7,19.8,32.5,47.4,32.5,76-.2,4.4-.5,9-1.1,13.6Z"></path>
                <path class="cls-4" d="M649.9,377.3c-39.6-24.6-63.2-67.1-63.2-113.6s-.9-2.1-2.1-2.1-2.1.9-2.1,2.1c0,48,24.4,91.8,65.1,117.2.3.2.7.3,1.1.3.7,0,1.4-.4,1.8-1,.7-1,.4-2.3-.6-2.9Z"></path>
                <path class="cls-4" d="M767.6,328.7c-13.8,10-30,15.2-47.1,15.2s-2.1.9-2.1,2.1.9,2.1,2.1,2.1c17.9,0,35.1-5.5,49.5-16,.9-.7,1.1-2,.5-2.9-.7-.9-2-1.1-2.9-.5Z"></path>
                <path class="cls-4" d="M813.5,368.8c-8.4,0-15.2,6.8-15.2,15.2s6.8,15.2,15.2,15.2,15.2-6.8,15.2-15.2-6.8-15.2-15.2-15.2ZM813.5,395.1c-6.1,0-11.1-5-11.1-11.1s5-11.1,11.1-11.1,11.1,5,11.1,11.1c0,6.1-5,11.1-11.1,11.1Z"></path>
                <path class="cls-4" d="M665.1,467.3c-.4-.5-1-.7-1.6-.7h-82.5c-.6,0-1.2.3-1.6.7-.4.5-.6,1.1-.5,1.7l13.6,82.3h4.2l-13.4-80.5h77.7l-13.4,80.5h4.2l13.6-82.3c.3-.6.1-1.3-.3-1.7Z"></path>
                <path class="cls-4" d="M659.9,440.4h-75.3c-8.4,0-15.2,6.8-15.2,15.2s6.8,15.2,15.2,15.2h75.3c8.4,0,15.2-6.8,15.2-15.2s-6.8-15.2-15.2-15.2ZM659.9,466.5h-75.3c-6.1,0-11-4.9-11-11s4.9-11,11-11h75.3c6.1,0,11,4.9,11,11s-4.9,11-11,11Z"></path>
                <path class="cls-4" d="M655.1,411.9l-71.3,28.6c-1.1.4-1.6,1.7-1.2,2.7.3.8,1.1,1.3,1.9,1.3s.5,0,.8-.2l71.3-28.6c1.1-.4,1.6-1.7,1.2-2.7-.4-1-1.6-1.6-2.7-1.1Z"></path>
                <path class="cls-4" d="M774,467.2c-.4-.5-1-.7-1.6-.7h-82.5c-.6,0-1.2.3-1.6.7-.4.5-.6,1.1-.5,1.7l13.7,82.3h4.2l-13.4-80.6h77.6l-13.4,80.6h4.2l13.7-82.3c.2-.6,0-1.2-.4-1.7Z"></path>
                <path class="cls-4" d="M768.8,440.3h-75.3c-8.4,0-15.2,6.8-15.2,15.2s6.8,15.2,15.2,15.2h75.3c8.4,0,15.2-6.8,15.2-15.2s-6.8-15.2-15.2-15.2ZM768.8,466.5h-75.3c-6.1,0-11-4.9-11-11s4.9-11,11-11h75.3c6.1,0,11,4.9,11,11s-4.9,11-11,11Z"></path>
                <path class="cls-4" d="M764,411.8l-71.3,28.6c-1.1.4-1.6,1.7-1.2,2.7.3.8,1.1,1.3,1.9,1.3s.5,0,.8-.2l71.3-28.6c1.1-.4,1.6-1.7,1.2-2.7-.4-1-1.6-1.5-2.7-1.1Z"></path>
                <path class="cls-4" d="M882.9,467.2c-.4-.5-1-.7-1.6-.7h-82.5c-.6,0-1.2.3-1.6.7-.4.5-.6,1.1-.5,1.7l13.7,82.4h4.2l-13.4-80.6h77.6l-13.4,80.6h4.2l13.7-82.4c.2-.6,0-1.3-.4-1.7Z"></path>
                <path class="cls-4" d="M877.7,440.2h-75.3c-8.4,0-15.2,6.8-15.2,15.2s6.8,15.2,15.2,15.2h75.3c8.4,0,15.2-6.8,15.2-15.2s-6.8-15.2-15.2-15.2ZM877.7,466.4h-75.3c-6.1,0-11-4.9-11-11s4.9-11,11-11h75.3c6.1,0,11,4.9,11,11s-4.9,11-11,11Z"></path>
                <path class="cls-4" d="M872.9,411.8l-71.3,28.6c-1.1.4-1.6,1.7-1.2,2.7.3.8,1.1,1.3,1.9,1.3s.5,0,.8-.2l71.3-28.6c1.1-.4,1.6-1.7,1.2-2.7-.4-1-1.6-1.6-2.7-1.1Z"></path>
                <path class="cls-4" d="M909.1,60.8c-36.6,13.8-46.8,57.3-47.2,59.2-.3,1.1.5,2.2,1.6,2.5.2,0,.3,0,.5,0,1,0,1.8-.7,2-1.6,0-.4,10.1-43.2,44.6-56.2,1.1-.4,1.6-1.6,1.2-2.7-.4-1.1-1.6-1.7-2.7-1.3Z"></path>
                <path class="cls-4" d="M195.7,381.1h-62c-.6,0-1.1.2-1.5.7l-61.9,66.2c-.6.6-.7,1.5-.4,2.3.3.8,1.1,1.3,1.9,1.3h61.9c.6,0,1.1-.2,1.5-.7l61.9-66.2c.6-.6.7-1.5.4-2.3-.2-.8-1-1.3-1.8-1.3ZM132.9,447.4h-56.2l57.9-62h56.2l-57.9,62Z"></path>
                <path class="cls-4" d="M78.9,386.7c-.8-.8-2.1-.9-3-.1s-4.1-1.1-3.3-.2l59.6,64.5c.4.4,1,.7,1.5.7s1-.2,1.4-.6c.9-.8.9-2.1.1-3l-56.3-61.3Z"></path>
                <path class="cls-4" d="M189.8,345.4c-.2-1-1.1-1.7-2-1.7h-25.6c-.7,0-1.4.4-1.8,1l-3.2,5.2c-.6,1-.3,2.3.7,2.9s2.3.3,2.9-.7l2.6-4.2h22.6l21.3,100.1c.2,1,1.1,1.7,2,1.7h.4c1.1-.2,1.9-1.4,1.6-2.5l-21.5-101.8Z"></path>
                <g>
                  <path class="cls-3" d="M91,373.2h-33.7c-3.8,0-6.9,3.1-6.9,6.9h0c0,3.8,3.1,6.9,6.9,6.9h33.7c3.8,0,6.9-3.1,6.9-6.9h0c0-3.8-3.1-6.9-6.9-6.9Z"></path>
                  <path class="cls-3" d="M91,371.1h-33.7c-5,0-9,4-9,9s4,9,9,9h33.7c5,0,9-4,9-9s-4-9-9-9ZM91,385h-33.7c-2.7,0-4.8-2.2-4.8-4.8s2.2-4.8,4.8-4.8h33.7c2.7,0,4.8,2.2,4.8,4.8s-2.1,4.8-4.8,4.8Z"></path>
                </g>
                <g>
                  <path class="cls-4" d="M-22.1,521.7h-3.4c-1.2,0-2.1.9-2.1,2.1s.9,2.1,2.1,2.1h3.4c1.2,0,2.1-.9,2.1-2.1s-.9-2.1-2.1-2.1Z"></path>
                  <g>
                    <path class="cls-4" d="M96.1,521.7h-6.8c-1.2,0-2.1.9-2.1,2.1s.9,2.1,2.1,2.1h6.8c1.2,0,2.1-.9,2.1-2.1s-1-2.1-2.1-2.1Z"></path>
                    <path class="cls-4" d="M79.2,521.7h-6.8c-1.2,0-2.1.9-2.1,2.1s.9,2.1,2.1,2.1h6.8c1.2,0,2.1-.9,2.1-2.1,0-1.2-.9-2.1-2.1-2.1Z"></path>
                    <path class="cls-4" d="M113,521.7h-6.8c-1.2,0-2.1.9-2.1,2.1s.9,2.1,2.1,2.1h6.8c1.2,0,2.1-.9,2.1-2.1s-1-2.1-2.1-2.1Z"></path>
                    <path class="cls-4" d="M129.8,521.7h-6.8c-1.2,0-2.1.9-2.1,2.1s.9,2.1,2.1,2.1h6.8c1.2,0,2.1-.9,2.1-2.1,0-1.2-.9-2.1-2.1-2.1Z"></path>
                    <path class="cls-4" d="M-5.2,521.7h-6.8c-1.2,0-2.1.9-2.1,2.1s.9,2.1,2.1,2.1h6.8c1.2,0,2.1-.9,2.1-2.1s-1-2.1-2.1-2.1Z"></path>
                    <path class="cls-4" d="M62.3,521.7h-6.8c-1.2,0-2.1.9-2.1,2.1s.9,2.1,2.1,2.1h6.8c1.2,0,2.1-.9,2.1-2.1s-.9-2.1-2.1-2.1Z"></path>
                    <path class="cls-4" d="M11.7,521.7h-6.8c-1.2,0-2.1.9-2.1,2.1s.9,2.1,2.1,2.1h6.8c1.2,0,2.1-.9,2.1-2.1,0-1.2-1-2.1-2.1-2.1Z"></path>
                    <path class="cls-4" d="M146.7,521.7h-6.7c-1.2,0-2.1.9-2.1,2.1s.9,2.1,2.1,2.1h6.8c1.2,0,2.1-.9,2.1-2.1-.1-1.2-1-2.1-2.2-2.1Z"></path>
                    <path class="cls-4" d="M45.4,521.7h-6.8c-1.2,0-2.1.9-2.1,2.1s.9,2.1,2.1,2.1h6.8c1.2,0,2.1-.9,2.1-2.1s-.9-2.1-2.1-2.1Z"></path>
                    <path class="cls-4" d="M28.6,521.7h-6.8c-1.2,0-2.1.9-2.1,2.1s.9,2.1,2.1,2.1h6.8c1.2,0,2.1-.9,2.1-2.1,0-1.2-1-2.1-2.1-2.1Z"></path>
                    <path class="cls-4" d="M197.4,521.7h-6.8c-1.2,0-2.1.9-2.1,2.1s.9,2.1,2.1,2.1h6.8c1.2,0,2.1-.9,2.1-2.1s-1-2.1-2.1-2.1Z"></path>
                    <path class="cls-4" d="M298.7,521.7h-6.8c-1.2,0-2.1.9-2.1,2.1s.9,2.1,2.1,2.1h6.8c1.2,0,2.1-.9,2.1-2.1,0-1.2-1-2.1-2.1-2.1Z"></path>
                    <path class="cls-4" d="M163.6,521.7h-6.8c-1.2,0-2.1.9-2.1,2.1s.9,2.1,2.1,2.1h6.8c1.2,0,2.1-.9,2.1-2.1,0-1.2-.9-2.1-2.1-2.1Z"></path>
                    <path class="cls-4" d="M281.8,521.7h-6.8c-1.2,0-2.1.9-2.1,2.1s.9,2.1,2.1,2.1h6.8c1.2,0,2.1-.9,2.1-2.1s-1-2.1-2.1-2.1Z"></path>
                    <path class="cls-4" d="M315.5,521.7h-6.8c-1.2,0-2.1.9-2.1,2.1s.9,2.1,2.1,2.1h6.8c1.2,0,2.1-.9,2.1-2.1s-.9-2.1-2.1-2.1Z"></path>
                    <path class="cls-4" d="M332.4,521.7h-6.8c-1.2,0-2.1.9-2.1,2.1s.9,2.1,2.1,2.1h6.8c1.2,0,2.1-.9,2.1-2.1s-.9-2.1-2.1-2.1Z"></path>
                    <path class="cls-4" d="M264.9,521.7h-6.8c-1.2,0-2.1.9-2.1,2.1s.9,2.1,2.1,2.1h6.8c1.2,0,2.1-.9,2.1-2.1s-.9-2.1-2.1-2.1Z"></path>
                    <path class="cls-4" d="M180.5,521.7h-6.8c-1.2,0-2.1.9-2.1,2.1s.9,2.1,2.1,2.1h6.8c1.2,0,2.1-.9,2.1-2.1s-1-2.1-2.1-2.1Z"></path>
                    <path class="cls-4" d="M214.3,521.7h-6.8c-1.2,0-2.1.9-2.1,2.1s.9,2.1,2.1,2.1h6.8c1.2,0,2.1-.9,2.1-2.1-.1-1.2-1-2.1-2.1-2.1Z"></path>
                    <path class="cls-4" d="M231.1,521.7h-6.8c-1.2,0-2.1.9-2.1,2.1s.9,2.1,2.1,2.1h6.8c1.2,0,2.1-.9,2.1-2.1,0-1.2-.9-2.1-2.1-2.1Z"></path>
                    <path class="cls-4" d="M248,521.7h-6.8c-1.2,0-2.1.9-2.1,2.1s.9,2.1,2.1,2.1h6.8c1.2,0,2.1-.9,2.1-2.1s-.9-2.1-2.1-2.1Z"></path>
                  </g>
                  <path class="cls-4" d="M345.9,521.7h-3.4c-1.2,0-2.1.9-2.1,2.1s.9,2.1,2.1,2.1h3.4c1.2,0,2.1-.9,2.1-2.1s-.9-2.1-2.1-2.1Z"></path>
                </g>
                <g>
                  <path class="cls-4" d="M868.2-113.3c-1.2,0-2.1.9-2.1,2.1v6.7c0,1.2.9,2.1,2.1,2.1s2.1-.9,2.1-2.1v-6.7c0-1.2-1-2.1-2.1-2.1Z"></path>
                  <path class="cls-4" d="M868.2-96.6c-1.2,0-2.1.9-2.1,2.1v6.7c0,1.2.9,2.1,2.1,2.1s2.1-.9,2.1-2.1v-6.7c0-1.1-1-2.1-2.1-2.1Z"></path>
                  <path class="cls-4" d="M868.2-79.8c-1.2,0-2.1.9-2.1,2.1v6.7c0,1.2.9,2.1,2.1,2.1s2.1-.9,2.1-2.1v-6.7c0-1.2-1-2.1-2.1-2.1Z"></path>
                  <path class="cls-4" d="M868.2-63.1c-1.2,0-2.1.9-2.1,2.1v6.7c0,1.2.9,2.1,2.1,2.1s2.1-.9,2.1-2.1v-6.7c0-1.1-1-2.1-2.1-2.1Z"></path>
                  <path class="cls-4" d="M868.2-29.6c-1.2,0-2.1.9-2.1,2.1v6.7c0,1.2.9,2.1,2.1,2.1s2.1-.9,2.1-2.1v-6.7c0-1.1-1-2.1-2.1-2.1Z"></path>
                  <path class="cls-4" d="M868.2-46.3c-1.2,0-2.1.9-2.1,2.1v6.7c0,1.2.9,2.1,2.1,2.1s2.1-.9,2.1-2.1v-6.7c0-1.2-1-2.1-2.1-2.1Z"></path>
                  <path class="cls-4" d="M868.2-130.1c-1.2,0-2.1.9-2.1,2.1v6.7c0,1.2.9,2.1,2.1,2.1s2.1-.9,2.1-2.1v-6.7c0-1.1-1-2.1-2.1-2.1Z"></path>
                  <path class="cls-4" d="M868.2-212.8c-1.2,0-2.1.9-2.1,2.1v5.6c0,1.2.9,2.1,2.1,2.1s2.1-.9,2.1-2.1v-5.6c0-1.1-1-2.1-2.1-2.1Z"></path>
                  <path class="cls-4" d="M868.2-180.3c-1.2,0-2.1.9-2.1,2.1v6.7c0,1.2.9,2.1,2.1,2.1s2.1-.9,2.1-2.1v-6.7c0-1.2-1-2.1-2.1-2.1Z"></path>
                  <path class="cls-4" d="M868.2-197.1c-1.2,0-2.1.9-2.1,2.1v6.7c0,1.2.9,2.1,2.1,2.1s2.1-.9,2.1-2.1v-6.7c0-1.2-1-2.1-2.1-2.1Z"></path>
                  <path class="cls-4" d="M868.2-163.6c-1.2,0-2.1.9-2.1,2.1v6.7c0,1.2.9,2.1,2.1,2.1s2.1-.9,2.1-2.1v-6.7c0-1.2-1-2.1-2.1-2.1Z"></path>
                  <path class="cls-4" d="M868.2-146.8c-1.2,0-2.1.9-2.1,2.1v6.7c0,1.2.9,2.1,2.1,2.1s2.1-.9,2.1-2.1v-6.7c0-1.2-1-2.1-2.1-2.1Z"></path>
                </g>
                <g>
                  <path class="cls-4" d="M716.7-56.8c-1.2,0-2.1.9-2.1,2.1v6.7c0,1.2.9,2.1,2.1,2.1s2.1-.9,2.1-2.1v-6.7c0-1.2-.9-2.1-2.1-2.1Z"></path>
                  <path class="cls-4" d="M716.7-107.1c-1.2,0-2.1.9-2.1,2.1v6.7c0,1.2.9,2.1,2.1,2.1s2.1-.9,2.1-2.1v-6.7c0-1.1-.9-2.1-2.1-2.1Z"></path>
                  <path class="cls-4" d="M716.7-73.6c-1.2,0-2.1.9-2.1,2.1v6.7c0,1.2.9,2.1,2.1,2.1s2.1-.9,2.1-2.1v-6.7c0-1.1-.9-2.1-2.1-2.1Z"></path>
                  <path class="cls-4" d="M716.7-90.3c-1.2,0-2.1.9-2.1,2.1v6.7c0,1.2.9,2.1,2.1,2.1s2.1-.9,2.1-2.1v-6.7c0-1.2-.9-2.1-2.1-2.1Z"></path>
                  <path class="cls-4" d="M716.7-23.3c-1.2,0-2.1.9-2.1,2.1v6.7c0,1.2.9,2.1,2.1,2.1s2.1-.9,2.1-2.1v-6.7c0-1.2-.9-2.1-2.1-2.1Z"></path>
                  <path class="cls-4" d="M716.7-6.5c-1.2,0-2.1.9-2.1,2.1V2.3c0,1.2.9,2.1,2.1,2.1s2.1-.9,2.1-2.1v-6.7c0-1.2-.9-2.1-2.1-2.1Z"></path>
                  <path class="cls-4" d="M716.7-40.1c-1.2,0-2.1.9-2.1,2.1v6.7c0,1.2.9,2.1,2.1,2.1s2.1-.9,2.1-2.1v-6.7c0-1.1-.9-2.1-2.1-2.1Z"></path>
                  <path class="cls-4" d="M716.7-207.6c-1.2,0-2.1.9-2.1,2.1v6.7c0,1.2.9,2.1,2.1,2.1s2.1-.9,2.1-2.1v-6.7c0-1.2-.9-2.1-2.1-2.1Z"></path>
                  <path class="cls-4" d="M716.7-224.4c-1.2,0-2.1.9-2.1,2.1v6.7c0,1.2.9,2.1,2.1,2.1s2.1-.9,2.1-2.1v-6.7c0-1.1-.9-2.1-2.1-2.1Z"></path>
                  <path class="cls-4" d="M716.7-190.8c-1.2,0-2.1.9-2.1,2.1v6.7c0,1.2.9,2.1,2.1,2.1s2.1-.9,2.1-2.1v-6.7c0-1.2-.9-2.1-2.1-2.1Z"></path>
                  <path class="cls-4" d="M716.7-123.8c-1.2,0-2.1.9-2.1,2.1v6.7c0,1.2.9,2.1,2.1,2.1s2.1-.9,2.1-2.1v-6.7c0-1.2-.9-2.1-2.1-2.1Z"></path>
                  <path class="cls-4" d="M716.7-140.6c-1.2,0-2.1.9-2.1,2.1v6.7c0,1.2.9,2.1,2.1,2.1s2.1-.9,2.1-2.1v-6.7c0-1.1-.9-2.1-2.1-2.1Z"></path>
                  <path class="cls-4" d="M716.7-174.1c-1.2,0-2.1.9-2.1,2.1v6.7c0,1.2.9,2.1,2.1,2.1s2.1-.9,2.1-2.1v-6.7c0-1.2-.9-2.1-2.1-2.1Z"></path>
                  <path class="cls-4" d="M716.7-157.3c-1.2,0-2.1.9-2.1,2.1v6.7c0,1.2.9,2.1,2.1,2.1s2.1-.9,2.1-2.1v-6.7c0-1.2-.9-2.1-2.1-2.1Z"></path>
                </g>
                <g>
                  <path class="cls-4" d="M650.2-197.5c-1.2,0-2.1.9-2.1,2.1v6.7c0,1.2.9,2.1,2.1,2.1s2.1-.9,2.1-2.1v-6.7c0-1.2-1-2.1-2.1-2.1Z"></path>
                  <path class="cls-4" d="M650.2-180.8c-1.2,0-2.1.9-2.1,2.1v6.7c0,1.2.9,2.1,2.1,2.1s2.1-.9,2.1-2.1v-6.7c0-1.1-1-2.1-2.1-2.1Z"></path>
                  <path class="cls-4" d="M650.2-214.3c-1.2,0-2.1.9-2.1,2.1v6.7c0,1.2.9,2.1,2.1,2.1s2.1-.9,2.1-2.1v-6.7c0-1.1-1-2.1-2.1-2.1Z"></path>
                  <path class="cls-4" d="M650.2-164c-1.2,0-2.1.9-2.1,2.1v6.7c0,1.2.9,2.1,2.1,2.1s2.1-.9,2.1-2.1v-6.7c0-1.2-1-2.1-2.1-2.1Z"></path>
                  <path class="cls-4" d="M650.2-231c-1.2,0-2.1.9-2.1,2.1v6.7c0,1.2.9,2.1,2.1,2.1s2.1-.9,2.1-2.1v-6.7c0-1.2-1-2.1-2.1-2.1Z"></path>
                  <path class="cls-4" d="M650.2-331.6c-1.2,0-2.1.9-2.1,2.1v6.7c0,1.2.9,2.1,2.1,2.1s2.1-.9,2.1-2.1v-6.7c0-1.1-1-2.1-2.1-2.1Z"></path>
                  <path class="cls-4" d="M650.2-298c-1.2,0-2.1.9-2.1,2.1v6.7c0,1.2.9,2.1,2.1,2.1s2.1-.9,2.1-2.1v-6.7c0-1.2-1-2.1-2.1-2.1Z"></path>
                  <path class="cls-4" d="M650.2-314.8c-1.2,0-2.1.9-2.1,2.1v6.7c0,1.2.9,2.1,2.1,2.1s2.1-.9,2.1-2.1v-6.7c0-1.2-1-2.1-2.1-2.1Z"></path>
                  <path class="cls-4" d="M650.2-247.8c-1.2,0-2.1.9-2.1,2.1v6.7c0,1.2.9,2.1,2.1,2.1s2.1-.9,2.1-2.1v-6.7c0-1.1-1-2.1-2.1-2.1Z"></path>
                  <path class="cls-4" d="M650.2-281.3c-1.2,0-2.1.9-2.1,2.1v6.7c0,1.2.9,2.1,2.1,2.1s2.1-.9,2.1-2.1v-6.7c0-1.2-1-2.1-2.1-2.1Z"></path>
                  <path class="cls-4" d="M650.2-264.5c-1.2,0-2.1.9-2.1,2.1v6.7c0,1.2.9,2.1,2.1,2.1s2.1-.9,2.1-2.1v-6.7c0-1.2-1-2.1-2.1-2.1Z"></path>
                </g>
                <path class="cls-4" d="M77.9-49.1h-.5c-.6,0-1.2.5-1.6,1.1s-.5,1.2-.4,1.9c.2,1.1,1.3,2,2.4,2s.3,0,.5,0c.6,0,1.2-.5,1.6-1.1s.5-1.2.4-1.9c-.2-1.1-1.2-1.9-2.4-1.9Z"></path>
                <path class="cls-4" d="M56.8,94.9h-.5c-1.3.3-2.2,1.6-1.9,2.9.2,1.1,1.3,2,2.4,2h.5c.6,0,1.2-.5,1.6-1.1.4-.6.5-1.2.4-1.9-.3-1-1.3-1.9-2.5-1.9Z"></path>
                <path class="cls-4" d="M309,147.1h-.5c-1.3.3-2.2,1.6-1.9,2.9.2,1.1,1.3,2,2.4,2h.5c.6-.1,1.2-.5,1.6-1.1s.5-1.2.4-1.9c-.3-1.1-1.3-1.9-2.5-1.9Z"></path>
                <path class="cls-4" d="M11,461.6h-.5c-.6.1-1.2.5-1.6,1.1-.4.6-.5,1.2-.4,1.9.2,1.1,1.3,2,2.4,2s.3,0,.5-.1c.6-.1,1.2-.5,1.6-1.1.4-.6.5-1.2.4-1.9-.2-1.1-1.2-1.9-2.4-1.9Z"></path>
                <path class="cls-4" d="M667.2,382.5h-.5c-.6.1-1.2.5-1.6,1.1-.4.6-.5,1.2-.4,1.9.2,1.1,1.3,2,2.4,2h.5c1.3-.3,2.2-1.6,1.9-2.9-.1-1.3-1.1-2.1-2.3-2.1Z"></path>
                <path class="cls-4" d="M779.8,319.9h-.5c-1.3.3-2.2,1.6-1.9,2.9.2,1.1,1.3,2,2.4,2h.5c1.3-.3,2.2-1.6,1.9-2.9-.2-1.1-1.2-2-2.4-2Z"></path>
                <path class="cls-4" d="M725.9,87.5c-.2,0-.3,0-.5,0-.6,0-1.2.5-1.6,1.1-.4.6-.5,1.2-.4,1.9.2,1.1,1.3,2,2.4,2h.5c.6,0,1.2-.5,1.6-1.1.4-.6.5-1.2.4-1.9-.2-1.3-1.2-2.1-2.4-2.1Z"></path>
                <path class="cls-4" d="M924.6,55h-.5c-.6,0-1.2.5-1.6,1.1-.4.6-.5,1.2-.4,1.9.2,1.1,1.3,2,2.4,2s.3,0,.5,0c.6,0,1.2-.5,1.6-1.1.4-.6.5-1.2.4-1.9-.2-1-1.2-1.9-2.4-1.9Z"></path>
                <path class="cls-4" d="M586.4-55h-.5c-1.3.3-2.2,1.6-1.9,2.9.2,1.1,1.3,2,2.4,2h.5c1.3-.3,2.2-1.6,1.9-2.9-.2-1.2-1.3-2-2.4-2Z"></path>
                <path class="cls-4" d="M301.1,7.3h-.5c-1.3.3-2.2,1.6-1.9,2.9.2,1.1,1.3,2,2.4,2h.5c.6-.1,1.2-.5,1.6-1.1s.5-1.2.4-1.9c-.3-1.1-1.3-1.9-2.5-1.9Z"></path>
                <path class="cls-4" d="M466.8-197.5h-.5c-.6.1-1.2.5-1.6,1.1s-.5,1.2-.4,1.9c.2,1.1,1.3,2,2.4,2h.5c.6-.1,1.2-.5,1.6-1.1s.5-1.2.4-1.9c-.2-1.2-1.2-2-2.4-2Z"></path>
                <path class="cls-4" d="M601.1-220.8c-.2,0-.3,0-.5.1-.6.1-1.2.5-1.6,1.1-.4.6-.5,1.2-.4,1.9.2,1.1,1.3,2,2.4,2h.5c.6-.1,1.2-.5,1.6-1.1s.5-1.2.4-1.9c-.3-1.3-1.3-2.1-2.4-2.1Z"></path>
                <path class="cls-4" d="M930.3-74.4h-.5c-.6,0-1.2.5-1.6,1.1-.4.6-.5,1.2-.4,1.9.2,1.1,1.3,2,2.4,2s.3,0,.5,0c.6,0,1.2-.5,1.6-1.1.4-.6.5-1.2.4-1.9-.3-1.1-1.3-1.9-2.4-1.9Z"></path>
                <path class="cls-4" d="M547,177.1c-.2,0-.3,0-.5.1-.6.1-1.2.5-1.6,1.1-.4.6-.5,1.2-.4,1.9.2,1.1,1.3,2,2.4,2h.5c.6-.1,1.2-.5,1.6-1.1.4-.6.5-1.2.4-1.9-.2-1.3-1.2-2.1-2.4-2.1Z"></path>
                <path class="cls-4" d="M205.2,416.8c-18,0-32.7,14.7-32.7,32.7s14.7,32.7,32.7,32.7,32.7-14.7,32.7-32.7-14.7-32.7-32.7-32.7ZM205.2,478c-15.7,0-28.5-12.8-28.5-28.5s12.8-28.5,28.5-28.5,28.5,12.8,28.5,28.5-12.8,28.5-28.5,28.5Z"></path>
                <path class="cls-4" d="M71.9,416.8c-18,0-32.7,14.7-32.7,32.7s14.7,32.7,32.7,32.7,32.7-14.7,32.7-32.7c-.1-18-14.7-32.7-32.7-32.7ZM71.9,478c-15.7,0-28.5-12.8-28.5-28.5s12.8-28.5,28.5-28.5,28.5,12.8,28.5,28.5-12.8,28.5-28.5,28.5Z"></path>
                <path class="cls-4" d="M130.6,343.8H-8.6c-1.2,0-2.1.9-2.1,2.1s.9,2.1,2.1,2.1h139.1c1.2,0,2.1-.9,2.1-2.1,0-1.2-.9-2.1-2-2.1Z"></path>
                <path class="cls-4" d="M575.1,217.2h-106.9c-1.2,0-2.1.9-2.1,2.1s.9,2.1,2.1,2.1h106.8c1.2,0,2.1-.9,2.1-2.1s-.9-2.1-2-2.1Z"></path>
                <path class="cls-4" d="M525.6,197.2h-57.4c-1.2,0-2.1.9-2.1,2.1s.9,2.1,2.1,2.1h57.4c1.2,0,2.1-.9,2.1-2.1s-.9-2.1-2.1-2.1Z"></path>
                <path class="cls-4" d="M239.2,12.9c-1.1.5-1.5,1.7-1,2.8,4.5,9.9,5.4,39.4-2.2,54.2-.5,1-.1,2.3.9,2.8.3.2.6.2,1,.2.8,0,1.5-.4,1.9-1.1,7.7-15.1,7.8-45.9,2.3-57.9-.6-1-1.8-1.5-2.9-1Z"></path>
                <path class="cls-4" d="M539.5-11.6l-48.5,27.8c-1,.6-1.4,1.9-.8,2.9.4.7,1.1,1.1,1.8,1.1s.7-.1,1-.3l48.6-27.9c1-.6,1.4-1.9.8-2.9-.6-.9-1.9-1.3-2.9-.7Z"></path>
                <circle class="cls-4" cx="776.3" cy="-279.6" r="11.1"></circle>
                <path class="cls-4" d="M866.4,118.7"></path>
                <path class="cls-4" d="M942.8,151.6c-.6-.9-1.9-1.2-2.8-.6-.9.6-1.2,1.9-.6,2.8l12.4,18.8c2,3.1,2.2,6.9.4,10.1-1.8,3.2-5,5.2-8.7,5.2h-26.4c-1.1,0-2,.9-2,2s.9,2,2,2h26.4c5.2,0,9.8-2.7,12.2-7.3,2.5-4.6,2.2-9.9-.6-14.2l-12.3-18.8Z"></path>
                <path class="cls-4" d="M920.9,118.4c-2.9-4.5-7.9-7.1-13.3-7.1s-10.3,2.7-13.3,7.1l-10.1,15.4c-.6.9-.4,2.2.6,2.8.9.6,2.2.4,2.8-.6l10.1-15.4c2.2-3.3,5.9-5.3,9.9-5.3s7.7,2,9.9,5.3l14,21.2c.4.6,1,.9,1.7.9s.8-.1,1.1-.3c.9-.6,1.2-1.9.6-2.8l-14-21.2Z"></path>
                <path class="cls-4" d="M902.4,187.9h-28.4c-4.1,0-7.8-2.2-9.8-5.8-2-3.7-1.8-7.9.5-11.4l15.8-23.9c.6-.9.4-2.2-.6-2.8-.9-.6-2.2-.4-2.8.6l-15.8,23.9c-3.1,4.7-3.4,10.5-.7,15.5s7.7,8,13.3,8h28.4c1.1,0,2-.9,2-2,0-1.2-.8-2.1-1.9-2.1Z"></path>
                <path class="cls-4" d="M881,144.8c-.3-1.1-1.4-1.7-2.5-1.4l-9.8,2.6c-1.1.3-1.7,1.4-1.4,2.5s1.4,1.7,2.5,1.4l7.9-2.1,2.2,7.9c.2.9,1.1,1.5,1.9,1.5s.4,0,.5-.1c1.1-.3,1.7-1.4,1.4-2.5l-2.7-9.8Z"></path>
                <path class="cls-4" d="M936.3,129c-1.1-.2-2.2.4-2.4,1.5l-1.7,7.9-8-1.7c-1.1-.2-2.2.5-2.4,1.6s.5,2.2,1.6,2.4l10,2.1h.4c.9,0,1.8-.6,2-1.6l2.2-9.9c0-1-.6-2.1-1.7-2.3Z"></path>
                <path class="cls-4" d="M925.1,181.3c-.8-.8-2-.9-2.8-.1l-7.5,7c-.8.8-.9,2,0,2.8l6.9,7.5c.4.4.9.7,1.5.7s1-.2,1.4-.5c.8-.8.9-2,0-2.8l-5.5-6,6-5.6c.8-.9.8-2.2,0-3Z"></path>
                <g>
                  <path class="cls-3" d="M996.7,155.6c-18.8,1.2-34.2,16.3-35.7,35.1-.7,8.5,1.5,16.5,5.6,23.2,7.1,11.6,10.7,25,10.7,38.5h43.8v-.8c0-13.5,4.1-26.6,11-38.2,3.4-5.7,5.4-12.4,5.4-19.6,0-22-18.5-39.6-40.8-38.2Z"></path>
                  <path class="cls-3" d="M1026.8,164.3c-8.2-7.7-19-11.6-30.3-10.9-19.9,1.3-36.1,17.2-37.6,37-.7,8.7,1.3,17.1,5.9,24.5,6.8,11,10.4,24,10.4,37.4s.9,2.1,2.1,2.1h43.8c1.2,0,2.1-.9,2.1-2.1v-.8c0-12.5,3.7-25.4,10.7-37.1,3.7-6.2,5.7-13.4,5.7-20.6,0-11.1-4.7-21.8-12.8-29.5ZM1030.3,212.3c-7.2,12-11.1,25.1-11.3,38h-39.7c-.4-13.5-4.1-26.4-11-37.5-4.1-6.6-5.9-14.2-5.3-21.9,1.4-17.8,15.9-32.1,33.7-33.2,10.1-.6,19.8,2.8,27.1,9.7,7.4,6.9,11.4,16.3,11.4,26.4.2,6.5-1.6,12.9-4.9,18.5Z"></path>
                </g>
                <g>
                  <path class="cls-3" d="M935.5,269.7c-24.7-12-22.4-26.8-22.4-26.8,0,0-15.5,29.5-8.5,49.2,5.6,15.8,25.9,26,39.6,22.5,5.3-1.4,9.1-6.1,9.5-11.5.6-9-1-25-18.2-33.4Z"></path>
                  <path class="cls-3" d="M936.4,267.8c-22.8-11.1-21.3-24-21.2-24.6.2-1-.4-2-1.4-2.3s-2,.1-2.5,1c-.6,1.2-15.8,30.6-8.7,50.8,4.9,13.9,21.2,24.6,35.6,24.6s4.4-.3,6.5-.8c6.1-1.6,10.6-7,11-13.4.7-9.3-.9-26.3-19.3-35.3ZM944.2,314.6h0ZM951.6,302.9c-.3,4.6-3.5,8.5-7.9,9.7-12.2,3.2-31.7-6-37.1-21.1-4.7-13.2,1.6-31.6,5.5-41.2,2,5.9,7.6,14.2,22.5,21.4,16.1,7.8,17.6,22.9,17,31.2Z"></path>
                </g>
                <g>
                  <path class="cls-3" d="M1062.2,292.9c-17.3,1.9-33.6,9.3-33.6,35.1s4,12.7,10.2,15.1c10.4,4.1,27.2,6,40-15.6,14.6-24.6,8.3-48.4,8.3-48.4,0,0-5.5,11.7-24.9,13.8Z"></path>
                  <path class="cls-3" d="M1087.3,277c-.9-.1-1.7.4-2.1,1.2,0,.1-5.2,10.7-23.3,12.6-23.9,2.6-35.5,14.7-35.5,37.2s4.5,14.3,11.5,17.1c3.6,1.4,8.2,2.7,13.4,2.7,9.3,0,20.2-4.1,29.1-19.2,14.9-25.1,8.8-49,8.5-50,0-.9-.7-1.5-1.6-1.6ZM1077,326.5c-11.8,19.8-26.8,18.9-37.4,14.7-5.4-2.1-8.9-7.3-8.9-13.2,0-20.2,10.1-30.7,31.7-33,12.8-1.4,19.9-6.7,23.5-10.6,1,7.9,1.3,24.9-8.9,42.1Z"></path>
                </g>
                <path class="cls-4" d="M1027.6,261h-56.9c-1.2,0-2.1.9-2.1,2.1s.9,2.1,2.1,2.1h56.9c1.2,0,2.1-.9,2.1-2.1s-.9-2.1-2.1-2.1Z"></path>
                <path class="cls-4" d="M1027.6,272.1h-56.9c-1.2,0-2.1.9-2.1,2.1s.9,2.1,2.1,2.1h56.9c1.2,0,2.1-.9,2.1-2.1s-.9-2.1-2.1-2.1Z"></path>
                <path class="cls-4" d="M1009.6,272.1c-1.2,0-2.1.9-2.1,2.1v11.6c0,4.6-3.7,8.3-8.3,8.3s-8.3-3.7-8.3-8.3v-11.6c0-1.2-.9-2.1-2.1-2.1s-2.1.9-2.1,2.1v11.6c0,6.9,5.6,12.5,12.5,12.5s12.5-5.6,12.5-12.5v-11.6c-.1-1.1-1-2.1-2.1-2.1Z"></path>
                <path class="cls-4" d="M999.2,294.1c-1.2,0-2.1.9-2.1,2.1v103.9c0,1.2.9,2.1,2.1,2.1s2.1-.9,2.1-2.1v-103.9c0-1.1-1-2.1-2.1-2.1Z"></path>
                <path class="cls-4" d="M1031.4,335.3c-35.2,3-34.3,31.1-34.3,31.4,0,1.1,1,2,2.1,2h0c1.2-.1,2-1,2-2.2s-.6-24.4,30.5-27c1.2-.1,2-1.1,1.9-2.3-.1-1.1-1.2-2-2.3-1.9Z"></path>
                <path class="cls-4" d="M991.9,313.4c-.3-.2-8.1-3.8-16.8-1.1-11.4,3.4-19.9-.3-22.6-3.4-.8-.9-2.1-1-3-.2s-1,2.1-.2,3c2.6,3,8.6,6.2,16.9,6.2s6.5-.5,10.2-1.6c7.2-2.1,13.8.9,13.8.9,1,.5,2.3.1,2.8-1,.4-1.1-.1-2.3-1.1-2.8Z"></path>
                <path class="cls-4" d="M991,318.9c-1.2,0-2.1.9-2.1,2.1v93.9c0,1.2.9,2.1,2.1,2.1s2.1-.9,2.1-2.1v-93.9c0-1.2-.9-2.1-2.1-2.1Z"></path>
                <path class="cls-4" d="M951.4,308.2c-20-5.6-35.8-39.5-35.9-39.8-.5-1.1-1.7-1.5-2.8-1s-1.5,1.7-1,2.8c.7,1.5,16.7,36,38.6,42.1.2.1.4.1.6.1.9,0,1.8-.6,2-1.5.3-1.2-.4-2.4-1.5-2.7Z"></path>
                <g>
                  <path class="cls-4" d="M999.2,209.7c-.6,0-1.1,0-1.6-.1.2-3.5,0-9.6-3-13.4-1.5-2-3.5-3.1-6-3.4-2.5-.3-4.6.6-5.8,2.4-1.7,2.4-1.5,6.2.4,9.7,2.1,3.9,5.6,6.7,10,8v39.4c0,1.2.9,2.1,2.1,2.1s2.1-.9,2.1-2.1v-38.6c.6.1,1.2.1,1.8.1,1.2,0,2.1-.9,2.1-2.1s-1-2-2.1-2ZM993.4,208.7c-4.1-1.6-5.9-4.5-6.5-5.7-1.3-2.4-1.2-4.5-.6-5.4,0-.2.4-.6,1.4-.6h.4c1.3.1,2.3.7,3.1,1.8,1.9,2.4,2.2,6.7,2.2,9.9Z"></path>
                  <path class="cls-4" d="M1009.8,192.9c-2.5.3-4.5,1.4-6,3.4-2.9,3.8-3.1,9.9-3,13.4-.5,0-1.1.1-1.6.1-1.2,0-2.1.9-2.1,2.1s.9,2.1,2.1,2.1,1.2,0,1.8-.1v38.6c0,1.2.9,2.1,2.1,2.1s2.1-.9,2.1-2.1v-39.5c4.4-1.3,7.9-4.1,10-8,1.9-3.6,2-7.3.4-9.7-1.3-1.9-3.3-2.7-5.8-2.4ZM1011.5,203c-.6,1.1-2.5,4.1-6.5,5.7,0-3.2.3-7.5,2.1-9.9.8-1,1.8-1.6,3.1-1.8h.4c1,0,1.3.5,1.4.6.7.9.8,3-.5,5.4Z"></path>
                </g>
              </g>
            </g>
          </g>
        </g>
        <g>
          <path class="cls-5" d="M0,202.4h92.1l-42.5-89.1c-.7-1.6-1.9-2.4-3.5-2.4s-2.8.8-3.5,2.4L0,202.4Z"></path>
          <path class="cls-5" d="M8.2,99.6h28.8c6.7,0,13-1.3,19-3.9,5.9-2.6,11.1-6.1,15.5-10.4,4.4-4.4,7.9-9.5,10.4-15.5,2.6-5.9,3.9-12.3,3.9-19s-1.3-13-3.9-19c-2.6-5.9-6-11.1-10.4-15.5-4.5-4.4-9.6-7.9-15.5-10.4-6-2.6-12.3-3.8-19-3.8H10.8c-.8,0-1.4.3-1.9.7-.4.5-.7,1.1-.7,1.9v94.9Z"></path>
          <rect class="cls-5" x="116.2" y="110.9" width="64.2" height="91.5"></rect>
        </g>
        <path class="cls-5" d="M149,0c6.6,0,12.9,1.3,18.7,3.8,5.8,2.5,10.9,6,15.3,10.3,4.3,4.3,7.8,9.4,10.3,15.3,2.5,5.8,3.8,12.1,3.8,18.7s-1.3,12.9-3.8,18.7-6,10.9-10.3,15.2c-4.3,4.3-9.4,7.8-15.3,10.3-5.8,2.5-12.1,3.8-18.7,3.8s-12.9-1.3-18.7-3.8-10.9-6-15.2-10.3c-4.3-4.3-7.8-9.4-10.3-15.2-2.5-5.8-3.8-12-3.8-18.7s1.3-12.9,3.8-18.7c2.5-5.8,6-10.9,10.3-15.3,4.3-4.3,9.4-7.8,15.2-10.3,5.8-2.5,12.1-3.8,18.7-3.8Z"></path>
        <g>
          <g>
            <path class="cls-7" d="M132.1,32.3c.6,0,1-.2,1.3-.5.2-.3.4-.7.4-1.2v-11.3c0-.4-.1-.8-.4-1.1-.2-.3-.7-.5-1.3-.5h-5.8v16.1c0,.4,0,.6-.4.9-.3.2-.6.3-1,.3-1,0-1.5-.4-1.5-1.2v-17.1c0-.6.2-1,.5-1.2s.7-.3,1.1-.3h7.8c.4,0,.9.1,1.3.3.5.2.9.4,1.3.7h0c.4.3.8.7,1,1.2s.3,1.1.3,1.7v11.7c0,1.3-.4,2.3-1.3,3-.4.3-.9.6-1.3.7-.5.2-.9.3-1.3.3h-4.1c-.3,0-.5,0-.7-.3s-.2-.5-.2-.9c0-.8.4-1.2,1.1-1.2h3.2Z"></path>
            <path class="cls-7" d="M146.9,17.6l-5.4,16.6h0c-.1.2-.2.4-.4.6s-.4.2-.6.2h-.4c-.1,0-.3,0-.4,0h0c-.9-.3-1.3-.8-1-1.6l5.6-17.1c.1-.3.2-.5.4-.7s.4-.3.7-.3.6-.1.8-.1h1.2c.3,0,.5.1.8.1s.5.2.7.4.4.4.5.6c.9,2.8,1.9,5.7,2.8,8.5.9,2.9,1.9,5.7,2.8,8.5.2.8-.1,1.3-1,1.6-.1,0-.3,0-.4,0h-.4c-.2,0-.4,0-.6-.2-.2-.2-.3-.4-.4-.6h0l-5.3-16.5ZM148.7,28.8c0,.5-.2,1-.6,1.3-.4.4-.8.6-1.3.6s-1-.2-1.3-.6c-.4-.4-.5-.8-.5-1.3s.2-1,.5-1.3c.4-.4.8-.6,1.3-.6s1,.2,1.3.6c.4.4.6.8.6,1.3Z"></path>
            <path class="cls-7" d="M164.5,33.8c0,.8-.5,1.2-1.5,1.2s-1.5-.4-1.5-1.2v-6.6l-5.5-10.5c-.1-.2-.1-.4-.1-.7,0-.5.3-.8.8-1.1h0c.4-.1.6-.2.9-.2s.8.2,1,.6l4.5,8.4c.3-.6.7-1.3,1.1-2,.4-.7.8-1.4,1.1-2.2.4-.7.8-1.5,1.1-2.2.4-.7.7-1.4,1.1-2,.1-.2.3-.4.4-.5.2-.1.3-.2.6-.2s.5.1.8.2h0c.6.2.9.6.9,1.1v.3c0,.1-.1.2-.1.3-.1.3-.3.7-.6,1.1-.2.4-.5,1-.9,1.8s-.9,1.8-1.6,3c-.6,1.2-1.5,2.8-2.5,4.7v6.7Z"></path>
          </g>
          <g>
            <path class="cls-7" d="M158.4,40.7c.4,0,.9,0,1.3.3.5.2.9.4,1.3.7h0c.4.3.8.7,1,1.2s.3,1.1.3,1.7v11.7c0,1.3-.4,2.3-1.3,3-.4.3-.9.6-1.3.7-.5.2-.9.3-1.3.3h-5.4c-.4,0-.9,0-1.3-.3-.5-.2-.9-.4-1.3-.7-.4-.3-.8-.7-1-1.2s-.3-1.1-.3-1.8v-11.7c0-.7.1-1.2.3-1.7s.6-.9,1-1.2h0c.4-.3.9-.5,1.3-.7.5-.2.9-.3,1.3-.3,0,0,5.4,0,5.4,0ZM157.8,57.8c.6,0,1-.2,1.3-.5s.4-.7.4-1.2v-11.3c0-.4-.1-.8-.4-1.1s-.7-.5-1.3-.5h-4.1c-.6,0-1,.2-1.3.5-.2.3-.4.7-.4,1.1v11.3c0,.4.1.8.4,1.2.2.3.7.5,1.3.5h4.1Z"></path>
            <path class="cls-7" d="M169,59.2c0,.8-.5,1.2-1.5,1.2s-1.5-.4-1.5-1.2v-17c0-.4.1-.7.3-1s.6-.5,1.2-.5h8.4c.6,0,.9.4.9,1.2s-.3,1.3-.9,1.3h-7v16h.1ZM175.3,50.1c0,.3-.1.5-.2.8-.1.3-.3.5-.4.7-.2.2-.4.3-.7.4-.2,0-.5.2-.8.2-.6,0-1-.2-1.4-.6-.4-.4-.6-.9-.6-1.5s.2-1.1.6-1.5c.4-.4.9-.6,1.4-.6s.6,0,.8.2c.2,0,.5.3.7.4.2.2.3.4.4.7.2.2.2.5.2.8Z"></path>
          </g>
          <g>
            <path class="cls-7" d="M146,68.7l-5.4,16.6h0c-.1.2-.2.4-.4.6s-.4.2-.6.2h-.4c-.1,0-.3,0-.4,0h0c-.9-.3-1.3-.8-1-1.6l5.6-17.1c.1-.3.2-.5.4-.7s.4-.3.7-.3.6,0,.8,0h1.2c.3,0,.5,0,.8,0s.5.2.7.4c.2.2.4.4.5.6.9,2.8,1.9,5.7,2.8,8.5.9,2.9,1.9,5.7,2.8,8.5.2.8-.1,1.3-1,1.6-.1,0-.3,0-.4,0h-.4c-.2,0-.4,0-.6-.2-.2-.2-.3-.4-.4-.6h0l-5.3-16.5ZM147.9,79.9c0,.5-.2,1-.6,1.3-.4.4-.8.6-1.3.6s-1-.2-1.3-.6c-.4-.4-.5-.8-.5-1.3s.2-1,.5-1.3c.4-.4.8-.6,1.3-.6s1,.2,1.3.6c.4.3.6.8.6,1.3Z"></path>
            <path class="cls-7" d="M159.5,84.8c0,.8-.5,1.2-1.5,1.2s-1.5-.4-1.5-1.2v-17.5c0-.8.5-1.2,1.5-1.2s1.5.4,1.5,1.2v17.5Z"></path>
          </g>
        </g>
      </g>
      <text class="cls-6" transform="translate(186 202.1)">
        <tspan x="0" y="0"></tspan>
      </text>
    </g>
  </g>
</svg>
